<svg width="420" height="334" viewBox="0 0 420 334" fill="none" xmlns="http://www.w3.org/2000/svg">
<path d="M387.728 207.897L380.378 208.084L376.648 208.159C375.402 208.19 374.149 208.183 372.899 208.195L372.65 208.197L372.649 207.897L372.619 200.422L372.617 200.087L372.899 200.088L380.313 200.131C382.784 200.134 385.256 200.205 387.727 200.24L387.882 200.242L387.88 200.422C387.87 201.691 387.832 202.952 387.807 204.199L387.728 207.897ZM387.728 207.897L387.649 204.121C387.624 202.876 387.586 201.646 387.576 200.422L387.728 200.605C385.257 200.639 382.785 200.711 380.314 200.714L372.9 200.756L373.179 200.423L373.149 207.898L372.9 207.6C374.122 207.612 375.34 207.605 376.565 207.637L380.25 207.712L387.728 207.897Z" fill="#EBEBEB"/>
<path d="M379.456 217.323L372.106 217.509L368.376 217.584C367.129 217.616 365.877 217.609 364.627 217.621L364.378 217.624L364.377 217.324L364.347 209.849L364.345 209.513L364.627 209.515L372.041 209.557C374.512 209.56 376.984 209.632 379.455 209.666L379.61 209.668L379.608 209.849C379.598 211.117 379.56 212.378 379.535 213.626L379.456 217.323ZM379.456 217.323L379.376 213.546C379.351 212.302 379.314 211.071 379.303 209.848L379.456 210.03C376.985 210.065 374.513 210.137 372.042 210.14L364.627 210.182L364.907 209.849L364.876 217.324L364.627 217.026C365.849 217.038 367.067 217.031 368.292 217.062L371.977 217.137L379.456 217.323Z" fill="#EBEBEB"/>
<path d="M396.001 217.323L388.651 217.509L384.92 217.584C383.674 217.616 382.421 217.609 381.171 217.621L380.923 217.624L380.921 217.324L380.891 209.849L380.89 209.513L381.171 209.515L388.586 209.557C391.057 209.56 393.529 209.632 396 209.666L396.155 209.668L396.153 209.849C396.142 211.117 396.105 212.378 396.08 213.626L396.001 217.323ZM396.001 217.323L395.921 213.546C395.896 212.302 395.858 211.071 395.848 209.848L396.001 210.03C393.529 210.065 391.057 210.137 388.586 210.14L381.172 210.182L381.451 209.849L381.421 217.324L381.171 217.026C382.393 217.038 383.612 217.031 384.837 217.062L388.521 217.137L396.001 217.323Z" fill="#EBEBEB"/>
<path d="M176.283 118.949L168.933 119.135L165.203 119.21C163.957 119.241 162.704 119.235 161.454 119.247L161.205 119.249L161.204 118.949L161.174 111.474L161.173 111.139L161.454 111.14L168.868 111.183C171.34 111.186 173.811 111.258 176.283 111.292L176.437 111.294L176.436 111.474C176.425 112.743 176.388 114.004 176.362 115.251L176.283 118.949ZM176.283 118.949L176.204 115.172C176.179 113.927 176.141 112.697 176.13 111.474L176.283 111.656C173.812 111.69 171.34 111.762 168.869 111.766L161.455 111.808L161.734 111.474L161.704 118.949L161.454 118.651C162.676 118.664 163.894 118.657 165.12 118.688L168.804 118.763L176.283 118.949Z" fill="#EBEBEB"/>
<path d="M168.012 128.374L160.662 128.56L156.932 128.635C155.685 128.667 154.432 128.66 153.182 128.672L152.934 128.675L152.933 128.375L152.902 120.9L152.901 120.564L153.182 120.566L160.597 120.608C163.068 120.611 165.54 120.683 168.011 120.717L168.166 120.719L168.164 120.9C168.154 122.168 168.116 123.43 168.091 124.677L168.012 128.374ZM168.012 128.374L167.932 124.597C167.907 123.353 167.87 122.122 167.859 120.899L168.012 121.081C165.541 121.116 163.069 121.188 160.597 121.191L153.183 121.233L153.462 120.9L153.432 128.375L153.182 128.077C154.404 128.089 155.623 128.082 156.848 128.114L160.532 128.188L168.012 128.374Z" fill="#EBEBEB"/>
<path d="M184.556 128.374L177.206 128.56L173.476 128.635C172.229 128.667 170.976 128.66 169.726 128.672L169.478 128.675L169.477 128.375L169.446 120.9L169.445 120.564L169.726 120.566L177.141 120.608C179.612 120.611 182.084 120.683 184.555 120.717L184.71 120.719L184.708 120.9C184.697 122.168 184.66 123.43 184.635 124.677L184.556 128.374ZM184.556 128.374L184.476 124.597C184.451 123.353 184.414 122.122 184.403 120.899L184.556 121.081C182.085 121.116 179.613 121.188 177.141 121.191L169.727 121.233L170.006 120.9L169.976 128.375L169.726 128.077C170.948 128.089 172.167 128.082 173.392 128.114L177.076 128.188L184.556 128.374Z" fill="#EBEBEB"/>
<path d="M55.3727 168.407L48.0227 168.594L44.2925 168.669C43.046 168.7 41.7932 168.693 40.5433 168.705L40.2947 168.707L40.2936 168.407L40.2633 160.933L40.2622 160.597L40.5433 160.599L47.9577 160.641C50.429 160.644 52.9008 160.716 55.3721 160.75L55.5267 160.752L55.525 160.933C55.5144 162.201 55.4768 163.462 55.4516 164.709L55.3727 168.407ZM55.3727 168.407L55.2932 164.631C55.268 163.386 55.2304 162.156 55.2198 160.933L55.3727 161.115C52.9014 161.149 50.4296 161.221 47.9583 161.224L40.5439 161.267L40.8233 160.933L40.7931 168.408L40.5433 168.11C41.7652 168.122 42.9838 168.116 44.2091 168.147L47.8933 168.222L55.3727 168.407Z" fill="#EBEBEB"/>
<path d="M301.203 118.943L293.853 119.13L290.123 119.204C288.876 119.236 287.623 119.229 286.373 119.241L286.125 119.243L286.124 118.943L286.093 111.468L286.092 111.133L286.373 111.134L293.787 111.176C296.259 111.18 298.73 111.252 301.202 111.286L301.356 111.288L301.355 111.468C301.344 112.737 301.306 113.998 301.281 115.245L301.203 118.943ZM301.203 118.943L301.123 115.166C301.098 113.922 301.061 112.691 301.05 111.468L301.203 111.651C298.732 111.685 296.26 111.757 293.788 111.76L286.374 111.802L286.653 111.469L286.623 118.944L286.373 118.646C287.595 118.658 288.814 118.651 290.039 118.683L293.723 118.758L301.203 118.943Z" fill="#EBEBEB"/>
<path d="M386.871 46.3458L379.521 46.5321L375.791 46.607C374.544 46.6384 373.292 46.6317 372.042 46.6437L371.793 46.6457L371.792 46.3458L371.762 38.8709L371.76 38.5355L372.042 38.5369L379.456 38.5789C381.927 38.5823 384.399 38.6538 386.87 38.6885L387.025 38.6905L387.023 38.8709C387.013 40.1394 386.975 41.4006 386.95 42.6477L386.871 46.3458ZM386.871 46.3458L386.791 42.5689C386.766 41.3244 386.729 40.094 386.718 38.8709L386.871 39.0532C384.4 39.0873 381.928 39.1594 379.457 39.1628L372.042 39.2049L372.322 38.8715L372.291 46.3464L372.042 46.0485C373.264 46.0605 374.482 46.0539 375.707 46.0853L379.392 46.1601L386.871 46.3458Z" fill="#EBEBEB"/>
<path d="M395.143 55.7706L387.793 55.957L384.062 56.0318C382.816 56.0632 381.563 56.0566 380.313 56.0686L380.065 56.0713L380.063 55.7713L380.033 48.2964L380.031 47.9611L380.313 47.9624L387.727 48.0045C390.198 48.0078 392.67 48.08 395.141 48.114L395.296 48.116L395.294 48.2964C395.284 49.5649 395.246 50.8261 395.221 52.0733L395.143 55.7706ZM395.143 55.7706L395.063 51.9938C395.038 50.7493 395 49.5188 394.99 48.2957L395.143 48.4781C392.671 48.5122 390.199 48.5843 387.728 48.5876L380.314 48.6297L380.593 48.2964L380.563 55.7713L380.313 55.4734C381.535 55.4854 382.754 55.4787 383.979 55.5101L387.663 55.5849L395.143 55.7706Z" fill="#EBEBEB"/>
<path d="M38.8287 46.3537L31.4787 46.5394L27.7486 46.6142C26.502 46.6456 25.2493 46.6389 23.9994 46.651L23.7507 46.6536L23.7496 46.3537L23.7194 38.8788L23.7183 38.5435L23.9994 38.5448L31.4138 38.5869C33.8851 38.5902 36.3569 38.6624 38.8282 38.6964L38.9827 38.6984L38.9811 38.8788C38.9704 40.1473 38.9329 41.4085 38.9077 42.6557L38.8287 46.3537ZM38.8287 46.3537L38.7492 42.5768C38.724 41.3324 38.6865 40.1019 38.6759 38.8788L38.8287 39.0612C36.3575 39.0952 33.8856 39.1674 31.4143 39.1707L23.9999 39.2128L24.2794 38.8795L24.2491 46.3544L23.9994 46.0565C25.2213 46.0685 26.4399 46.0618 27.6651 46.0932L31.3494 46.168L38.8287 46.3537Z" fill="#EBEBEB"/>
<path d="M122.254 40.2263H55.8735V93.5855H122.254V40.2263Z" fill="white" stroke="#EBEBEB" stroke-width="0.666667" stroke-miterlimit="10"/>
<path d="M62.2878 44.2639C62.2878 45.2713 61.6035 46.0876 60.759 46.0876C59.9145 46.0876 59.2302 45.2713 59.2302 44.2639C59.2302 43.2573 59.9145 42.4403 60.759 42.4403C61.6035 42.4403 62.2878 43.2566 62.2878 44.2639Z" fill="#37474F"/>
<path d="M68.53 44.2639C68.53 45.2713 67.8457 46.0876 67.0012 46.0876C66.1573 46.0876 65.4724 45.2713 65.4724 44.2639C65.4724 43.2573 66.1567 42.4403 67.0012 42.4403C67.8457 42.4403 68.53 43.2566 68.53 44.2639Z" fill="#EBEBEB"/>
<path d="M74.7727 44.2639C74.7727 45.2713 74.0884 46.0876 73.2439 46.0876C72.3994 46.0876 71.7151 45.2713 71.7151 44.2639C71.7151 43.2573 72.3994 42.4403 73.2439 42.4403C74.0884 42.4403 74.7727 43.2566 74.7727 44.2639Z" fill="#FFC727"/>
<path d="M55.8735 48.2644H122.254" stroke="#EBEBEB" stroke-width="0.666667" stroke-miterlimit="10"/>
<path d="M112.002 110.609C112.002 109.775 112.095 107.55 112.095 106.604C112.095 102.544 110.883 100.707 107.712 100.596C106.22 100.486 105.334 99.4288 105.334 97.9271C105.334 96.4241 106.219 95.368 107.712 95.2571C110.883 95.0908 112.095 93.3099 112.095 89.1937C112.095 88.2485 112.002 86.0234 112.002 85.189C112.002 79.7929 113.914 76.3441 121.142 74.4536C122.588 74.0635 123.707 75.121 123.707 76.7342C123.707 78.0695 122.961 78.7923 122.402 79.0147C117.879 80.6834 117.225 82.4082 117.225 86.1904C117.225 87.3033 117.319 89.1383 117.319 90.3073C117.319 94.6459 115.547 96.7601 112.468 97.9285C115.594 99.1516 117.319 101.21 117.319 105.548C117.319 106.717 117.225 108.552 117.225 109.665C117.225 113.447 117.879 115.172 122.402 116.84C122.961 117.062 123.707 117.785 123.707 119.121C123.707 120.735 122.588 121.791 121.142 121.402C113.914 119.51 112.002 116.061 112.002 110.609Z" fill="#EBEBEB"/>
<path d="M139.328 85.1893C139.328 86.0236 139.235 88.2487 139.235 89.1939C139.235 93.3108 140.494 95.091 143.666 95.2574C145.111 95.3682 145.998 96.425 145.998 97.9274C145.998 99.429 145.111 100.486 143.666 100.597C140.494 100.708 139.235 102.544 139.235 106.605C139.235 107.55 139.328 109.775 139.328 110.609C139.328 116.061 137.416 119.51 130.188 121.402C128.743 121.79 127.624 120.734 127.624 119.12C127.624 117.785 128.369 117.062 128.976 116.84C133.453 115.171 134.106 113.446 134.106 109.664C134.106 108.551 134.013 106.716 134.013 105.548C134.013 101.209 135.785 99.095 138.862 97.928C135.737 96.7042 134.013 94.6455 134.013 90.3068C134.013 89.1385 134.106 87.3035 134.106 86.1899C134.106 82.4077 133.453 80.6829 128.976 79.0143C128.369 78.7925 127.624 78.069 127.624 76.7337C127.624 75.1205 128.743 74.0637 130.188 74.4532C137.416 76.3436 139.328 79.7932 139.328 85.1893Z" fill="#EBEBEB"/>
<path d="M174.832 212.824C175.585 213.759 175.585 215.161 174.832 216.06C174.44 216.491 173.987 216.707 173.505 216.707C172.993 216.707 172.51 216.491 172.119 216.06L163.649 205.813C163.559 205.777 163.528 205.705 163.498 205.597C163.468 205.561 163.408 205.525 163.408 205.525C163.348 205.417 163.348 205.345 163.317 205.237C163.257 205.201 163.227 205.13 163.227 205.094C163.198 205.022 163.198 204.913 163.167 204.878C163.167 204.771 163.107 204.734 163.107 204.698C163.107 204.59 163.107 204.518 163.107 204.447C163.107 204.374 163.077 204.339 163.077 204.231C163.077 204.195 163.107 204.087 163.107 204.051C163.107 203.98 163.107 203.871 163.107 203.799C163.107 203.727 163.167 203.692 163.167 203.656C163.197 203.548 163.197 203.476 163.227 203.368C163.227 203.332 163.258 203.332 163.258 203.297C163.318 203.189 163.348 203.045 163.408 202.973C163.408 202.973 163.408 202.901 163.469 202.901C163.498 202.83 163.559 202.722 163.649 202.65L172.119 192.403C172.873 191.541 174.108 191.541 174.832 192.403C175.585 193.302 175.585 194.74 174.832 195.639L167.688 204.231L174.832 212.824Z" fill="#EBEBEB"/>
<path d="M182.517 213.974L189.901 193.013C190.263 192.007 191.228 191.539 192.102 191.971C192.916 192.366 193.307 193.552 192.945 194.524L185.561 215.521C185.29 216.276 184.657 216.707 184.023 216.707C183.842 216.707 183.602 216.672 183.421 216.564C182.548 216.167 182.155 214.982 182.517 213.974Z" fill="#EBEBEB"/>
<path d="M207.533 205.525C207.533 205.525 207.533 205.561 207.504 205.561C207.443 205.632 207.383 205.741 207.293 205.813L198.823 216.06C198.461 216.491 197.949 216.707 197.467 216.707C196.955 216.707 196.503 216.491 196.11 216.06C195.357 215.161 195.357 213.759 196.11 212.824L203.254 204.23L196.11 195.638C195.357 194.739 195.357 193.3 196.11 192.402C196.833 191.54 198.07 191.54 198.823 192.402L207.293 202.648C207.383 202.721 207.443 202.829 207.504 202.9C207.533 202.9 207.533 202.972 207.533 202.972C207.594 203.115 207.654 203.188 207.684 203.296C207.684 203.331 207.715 203.331 207.715 203.367C207.745 203.475 207.745 203.547 207.806 203.69C207.806 203.727 207.836 203.727 207.836 203.798C207.836 203.87 207.836 203.978 207.836 204.05C207.836 204.086 207.865 204.193 207.865 204.23C207.865 204.266 207.836 204.373 207.836 204.41C207.836 204.517 207.836 204.59 207.836 204.697C207.836 204.733 207.806 204.733 207.806 204.769C207.745 204.913 207.745 205.021 207.715 205.093C207.715 205.129 207.684 205.129 207.684 205.2C207.654 205.273 207.594 205.381 207.533 205.525Z" fill="#EBEBEB"/>
<path d="M328.44 93.741C328.44 98.2854 325.492 102.007 321.75 102.337V102.362H280.819C276.127 102.362 272.325 97.8265 272.325 92.2293C272.325 86.9528 275.706 82.6134 280.025 82.1398C280.27 72.9688 286.578 65.6208 294.326 65.6208C300.495 65.6208 305.752 70.2755 307.761 76.8012C308.904 76.1125 310.192 75.7297 311.559 75.7297C316.075 75.7297 319.769 79.9301 320.038 85.2353C320.419 85.1585 320.812 85.1204 321.213 85.1204C325.203 85.1204 328.44 88.9815 328.44 93.741Z" fill="#EBEBEB"/>
<path d="M49.6025 157.301C50.2768 156.802 51.1207 156.829 51.8 157.318C51.9848 157.451 52.1729 157.579 52.3644 157.701C52.5582 157.826 52.7536 157.943 52.9496 158.054C53.6642 158.456 54.148 159.277 54.1727 160.219L54.2567 163.444L63.0627 163.118L62.9792 159.871C62.9546 158.929 63.3976 158.077 64.0908 157.625C64.4655 157.381 64.83 157.112 65.1828 156.822C65.8397 156.28 66.6853 156.188 67.3892 156.639L69.7664 158.16L73.9317 148.895L71.5545 147.374C70.8506 146.924 70.4468 146.033 70.462 145.08C70.4698 144.569 70.4552 144.058 70.4188 143.55C70.3511 142.611 70.7016 141.7 71.3731 141.203L73.6859 139.49L69.0418 130.56L66.7324 132.267C66.0716 132.755 65.2394 132.752 64.5752 132.269C64.3815 132.128 64.1827 131.994 63.9811 131.865C63.7789 131.736 63.5751 131.613 63.369 131.498C62.6617 131.103 62.1975 130.273 62.174 129.342L62.0922 126.114L53.2862 126.44L53.3719 129.656C53.3965 130.583 52.9888 131.456 52.3056 131.898C51.8957 132.163 51.497 132.458 51.1128 132.779C50.4778 133.31 49.6428 133.355 48.9596 132.918L46.583 131.398L42.4177 140.663L44.7944 142.183C45.4988 142.634 45.9026 143.526 45.8869 144.48C45.8785 144.993 45.8925 145.504 45.9284 146.013C45.9956 146.953 45.6433 147.865 44.9702 148.363L42.6636 150.067L47.3076 158.997L49.6025 157.301ZM51.4169 141.736C53.1216 136.435 58.5076 134.496 62.3862 137.787C65.0266 140.028 66.0828 144.221 64.9208 147.828C63.2139 153.129 57.8418 155.063 53.9616 151.774C51.3212 149.535 50.2566 145.345 51.4169 141.736Z" fill="#EBEBEB"/>
<path d="M93.3385 73.6938C93.6163 73.1193 94.1455 72.8027 94.701 72.8367C94.8516 72.8461 95.0034 72.8508 95.1551 72.8508C95.3091 72.8508 95.4615 72.8461 95.6127 72.8367C96.1659 72.8033 96.6935 73.118 96.9701 73.6911L97.9171 75.649L103.263 71.9697L102.317 70.0124C102.039 69.438 102.067 68.7319 102.371 68.1768C102.538 67.8715 102.692 67.5549 102.832 67.2275C103.083 66.639 103.581 66.261 104.135 66.261H106.025V58.8963H104.135C103.581 58.8963 103.083 58.5182 102.832 57.9297C102.692 57.603 102.538 57.2857 102.371 56.9804C102.067 56.4253 102.039 55.7192 102.317 55.1448L103.263 53.1875L97.9171 49.5082L96.9651 51.4741C96.6884 52.0459 96.162 52.3599 95.6093 52.3258C95.4587 52.3171 95.3069 52.3124 95.1551 52.3124C95.0034 52.3124 94.8516 52.3171 94.701 52.3258C94.1455 52.3599 93.6168 52.0432 93.3391 51.4688L92.3927 49.5082L87.0469 53.1875L87.9922 55.1388C88.2705 55.7126 88.2436 56.4186 87.9401 56.9737C87.7721 57.2804 87.6181 57.599 87.4781 57.927C87.2267 58.5162 86.7277 58.8956 86.1739 58.8956H84.2844V66.2603H86.1739C86.7283 66.2603 87.2267 66.639 87.4781 67.2289C87.6181 67.5569 87.7721 67.8755 87.9401 68.1828C88.2436 68.7379 88.2705 69.444 87.9922 70.0178L87.0469 71.9697L92.3927 75.649L93.3385 73.6938ZM90.0967 62.5816C90.0967 59.251 92.363 56.5476 95.1551 56.5476C97.9473 56.5476 100.209 59.251 100.209 62.5816C100.209 65.9123 97.9473 68.6096 95.1551 68.6096C92.363 68.609 90.0967 65.9116 90.0967 62.5816Z" fill="#EBEBEB"/>
<path d="M377.583 72.2503L374.498 65.8736L372.862 67.0012C372.381 67.3332 371.789 67.3011 371.324 66.9391C371.067 66.7387 370.8 66.555 370.525 66.388C370.031 66.0887 369.714 65.4935 369.714 64.8322V62.5784H363.539V64.8322C363.539 65.4935 363.222 66.0887 362.728 66.388C362.453 66.555 362.186 66.7387 361.928 66.9391C361.463 67.3011 360.871 67.3332 360.39 67.0012L358.754 65.8736L355.669 72.2503L357.313 73.3793C357.794 73.7099 358.06 74.3412 358.031 75.0032C358.023 75.1829 358.02 75.3639 358.02 75.5449C358.02 75.7259 358.023 75.907 358.031 76.0867C358.06 76.746 357.796 77.3739 357.317 77.7039L355.669 78.8395L358.753 85.2169L360.394 84.0886C360.876 83.7573 361.468 83.79 361.933 84.1528C362.189 84.3525 362.455 84.5362 362.729 84.7025C363.222 85.0025 363.539 85.597 363.539 86.2576V88.5121H369.713V86.2576C369.713 85.597 370.03 85.0025 370.523 84.7025C370.797 84.5362 371.063 84.3525 371.319 84.1528C371.784 83.79 372.376 83.7573 372.858 84.0886L374.499 85.2169L377.583 78.8395L375.942 77.7099C375.462 77.3792 375.198 76.7507 375.226 76.0907C375.233 75.9103 375.237 75.728 375.237 75.5449C375.237 75.3632 375.233 75.1829 375.226 75.0032C375.197 74.3405 375.462 73.7099 375.944 73.3779L377.583 72.2503ZM371.681 75.5456C371.681 78.8762 369.42 81.5736 366.628 81.5736C363.836 81.5736 361.569 78.8762 361.569 75.5456C361.569 72.2149 363.836 69.5115 366.628 69.5115C369.42 69.5115 371.681 72.2149 371.681 75.5456Z" fill="#EBEBEB"/>
<path d="M357.887 46.8154H232.555V141.139H357.887V46.8154Z" fill="#37474F"/>
<path d="M357.887 46.8154H232.555V55.1233H357.887V46.8154Z" fill="#FFC727"/>
<path d="M239.093 51.0299C239.093 52.1849 238.308 53.1208 237.341 53.1208C236.373 53.1208 235.588 52.1849 235.588 51.0299C235.588 49.875 236.372 48.9391 237.341 48.9391C238.309 48.9391 239.093 49.875 239.093 51.0299Z" fill="#A6A6A6"/>
<path d="M246.251 51.0299C246.251 52.1849 245.466 53.1208 244.498 53.1208C243.53 53.1208 242.745 52.1849 242.745 51.0299C242.745 49.875 243.53 48.9391 244.498 48.9391C245.466 48.9384 246.251 49.875 246.251 51.0299Z" fill="#EBEBEB"/>
<path d="M253.409 51.0299C253.409 52.1849 252.624 53.1208 251.656 53.1208C250.688 53.1208 249.903 52.1849 249.903 51.0299C249.903 49.875 250.688 48.9391 251.656 48.9391C252.624 48.9391 253.409 49.875 253.409 51.0299Z" fill="white"/>
<path d="M243.75 71.6504H240.027V73.273H243.75V71.6504Z" fill="#EBEBEB"/>
<path d="M306.606 71.6504H246.465V73.273H306.606V71.6504Z" fill="#EBEBEB"/>
<path d="M315.967 71.6504H308.894V73.273H315.967V71.6504Z" fill="#FFC727"/>
<path d="M327.286 93.3617H320.213V94.9843H327.286V93.3617Z" fill="#EBEBEB"/>
<path d="M341.35 71.6504H317.505V73.273H341.35V71.6504Z" fill="#A6A6A6"/>
<path d="M247.474 75.993H243.751V77.6156H247.474V75.993Z" fill="#EBEBEB"/>
<path d="M278.126 75.993H250.094V77.6156H278.126V75.993Z" fill="#A6A6A6"/>
<path d="M318.533 93.3617H307.93V94.9843H318.533V93.3617Z" fill="#A6A6A6"/>
<path d="M273.239 89.0197H246.465V90.6422H273.239V89.0197Z" fill="#A6A6A6"/>
<path d="M268.877 80.3352H250.094V81.9578H268.877V80.3352Z" fill="#FFC727"/>
<path d="M332.407 84.6777H313.624V86.3003H332.407V84.6777Z" fill="#A6A6A6"/>
<path d="M318.385 80.3352H270.962V81.9578H318.385V80.3352Z" fill="#A6A6A6"/>
<path d="M305.507 93.3617H246.465V94.9843H305.507V93.3617Z" fill="#FFC727"/>
<path d="M347.738 75.993H316.716V77.6156H347.738V75.993Z" fill="#FFC727"/>
<path d="M315.179 75.993H279.886V77.6156H315.179V75.993Z" fill="#EBEBEB"/>
<path d="M343.469 80.3352H331.414V81.9578H343.469V80.3352Z" fill="#EBEBEB"/>
<path d="M247.474 80.3352H243.751V81.9578H247.474V80.3352Z" fill="#EBEBEB"/>
<path d="M243.75 84.6777H240.027V86.3003H243.75V84.6777Z" fill="#A6A6A6"/>
<path d="M268.471 84.6777H246.465V86.3003H268.471V84.6777Z" fill="#EBEBEB"/>
<path d="M272.101 97.7045H250.094V99.327H272.101V97.7045Z" fill="#EBEBEB"/>
<path d="M336.907 102.046H308.558V103.669H336.907V102.046Z" fill="#FFC727"/>
<path d="M313.385 97.7045H273.888V99.327H313.385V97.7045Z" fill="#FFC727"/>
<path d="M306.633 102.046H269.995V103.669H306.633V102.046Z" fill="#EBEBEB"/>
<path d="M256.466 102.046H250.094V103.669H256.466V102.046Z" fill="#A6A6A6"/>
<path d="M315.967 89.0197H274.753V90.6422H315.967V89.0197Z" fill="#EBEBEB"/>
<path d="M344.257 89.0197H317.505V90.6422H344.257V89.0197Z" fill="#FFC727"/>
<path d="M311.893 84.6777H270.708V86.3003H311.893V84.6777Z" fill="#FFC727"/>
<path d="M243.75 89.0197H240.027V90.6422H243.75V89.0197Z" fill="#EBEBEB"/>
<path d="M243.75 93.3617H240.027V94.9843H243.75V93.3617Z" fill="#EBEBEB"/>
<path d="M247.474 97.7045H243.751V99.327H247.474V97.7045Z" fill="#A6A6A6"/>
<path d="M247.474 102.046H243.751V103.669H247.474V102.046Z" fill="#EBEBEB"/>
<path d="M243.75 105.683H240.027V107.306H243.75V105.683Z" fill="#EBEBEB"/>
<path d="M290.127 105.683H246.465V107.306H290.127V105.683Z" fill="#EBEBEB"/>
<path d="M247.474 110.025H243.751V111.647H247.474V110.025Z" fill="#EBEBEB"/>
<path d="M278.126 110.025H250.094V111.647H278.126V110.025Z" fill="#A6A6A6"/>
<path d="M268.877 114.368H250.094V115.99H268.877V114.368Z" fill="#FFC727"/>
<path d="M318.385 114.368H270.962V115.99H318.385V114.368Z" fill="#A6A6A6"/>
<path d="M347.738 110.025H316.716V111.647H347.738V110.025Z" fill="#FFC727"/>
<path d="M315.179 110.025H279.886V111.647H315.179V110.025Z" fill="#EBEBEB"/>
<path d="M247.474 114.368H243.751V115.99H247.474V114.368Z" fill="#EBEBEB"/>
<path d="M242.327 67.3779C242.455 67.5362 242.455 67.774 242.327 67.927C242.261 67.9998 242.184 68.0365 242.102 68.0365C242.015 68.0365 241.933 67.9998 241.867 67.927L240.431 66.1895C240.415 66.1835 240.41 66.1715 240.405 66.1528C240.4 66.1461 240.39 66.1401 240.39 66.1401C240.379 66.122 240.379 66.1093 240.374 66.0913C240.364 66.0853 240.359 66.0733 240.359 66.0672C240.354 66.0552 240.354 66.0365 240.349 66.0305C240.349 66.0125 240.338 66.0065 240.338 65.9998C240.338 65.9817 240.338 65.9691 240.338 65.957C240.338 65.945 240.333 65.939 240.333 65.9203C240.333 65.9136 240.338 65.8956 240.338 65.8896C240.338 65.8769 240.338 65.8588 240.338 65.8468C240.338 65.8341 240.349 65.8288 240.349 65.8221C240.354 65.8041 240.354 65.792 240.359 65.7733C240.359 65.7673 240.364 65.7673 240.364 65.7613C240.374 65.7433 240.379 65.7186 240.39 65.7065C240.39 65.7065 240.39 65.6945 240.4 65.6945C240.405 65.6818 240.415 65.6638 240.431 65.6518L241.867 63.9143C241.995 63.768 242.204 63.768 242.327 63.9143C242.455 64.0666 242.455 64.3104 242.327 64.4627L241.116 65.9196L242.327 67.3779Z" fill="#FFC727"/>
<path d="M243.629 67.5729L244.881 64.0185C244.942 63.8481 245.105 63.7686 245.254 63.8421C245.392 63.9089 245.458 64.11 245.397 64.275L244.145 67.8354C244.098 67.963 243.991 68.0365 243.884 68.0365C243.853 68.0365 243.813 68.0305 243.782 68.0124C243.634 67.945 243.568 67.7439 243.629 67.5729Z" fill="#FFC727"/>
<path d="M247.87 66.14C247.87 66.14 247.87 66.146 247.865 66.146C247.854 66.1587 247.844 66.1767 247.829 66.1888L246.393 67.9262C246.332 67.999 246.244 68.0358 246.163 68.0358C246.076 68.0358 246 67.999 245.933 67.9262C245.805 67.7733 245.805 67.5361 245.933 67.3771L247.144 65.9202L245.933 64.4633C245.805 64.311 245.805 64.0665 245.933 63.9149C246.056 63.7686 246.265 63.7686 246.393 63.9149L247.829 65.6524C247.844 65.6644 247.854 65.6824 247.865 65.6951C247.87 65.6951 247.87 65.7071 247.87 65.7071C247.88 65.7312 247.89 65.7439 247.896 65.7619C247.896 65.7679 247.901 65.7679 247.901 65.7739C247.906 65.7926 247.906 65.8047 247.916 65.8294C247.916 65.8354 247.921 65.8354 247.921 65.8474C247.921 65.8594 247.921 65.8775 247.921 65.8902C247.921 65.8962 247.927 65.9142 247.927 65.9209C247.927 65.9269 247.921 65.9449 247.921 65.951C247.921 65.969 247.921 65.9817 247.921 65.9997C247.921 66.0057 247.916 66.0057 247.916 66.0117C247.906 66.0358 247.906 66.0545 247.901 66.0665C247.901 66.0725 247.896 66.0725 247.896 66.0846C247.89 66.0973 247.88 66.116 247.87 66.14Z" fill="#FFC727"/>
<path d="M187.445 64.9957H62.1133V159.319H187.445V64.9957Z" fill="#37474F"/>
<path d="M187.445 64.9957H62.1133V73.3036H187.445V64.9957Z" fill="#FFC727"/>
<path d="M68.6514 69.2102C68.6514 70.3652 67.8668 71.3011 66.8986 71.3011C65.9303 71.3011 65.1458 70.3652 65.1458 69.2102C65.1458 68.0553 65.9303 67.1194 66.8986 67.1194C67.8668 67.1194 68.6514 68.0553 68.6514 69.2102Z" fill="#A6A6A6"/>
<path d="M74.0558 71.3011C75.0238 71.3011 75.8086 70.365 75.8086 69.2102C75.8086 68.0555 75.0238 67.1194 74.0558 67.1194C73.0877 67.1194 72.303 68.0555 72.303 69.2102C72.303 70.365 73.0877 71.3011 74.0558 71.3011Z" fill="#EBEBEB"/>
<path d="M82.9665 69.2102C82.9665 70.3652 82.1814 71.3011 81.2137 71.3011C80.2455 71.3011 79.4609 70.3652 79.4609 69.2102C79.4609 68.0553 80.2455 67.1194 81.2137 67.1194C82.182 67.1194 82.9665 68.0553 82.9665 69.2102Z" fill="white"/>
<path d="M73.3079 89.8307H69.5845V91.4533H73.3079V89.8307Z" fill="#EBEBEB"/>
<path d="M124.964 89.8307H76.0222V91.4533H124.964V89.8307Z" fill="#EBEBEB"/>
<path d="M172.845 89.8307H158.175V91.4533H172.845V89.8307Z" fill="#EBEBEB"/>
<path d="M134.324 89.8307H127.251V91.4533H134.324V89.8307Z" fill="#FFC727"/>
<path d="M145.644 111.542H138.571V113.165H145.644V111.542Z" fill="#EBEBEB"/>
<path d="M156.347 89.8307H136.421V91.4533H156.347V89.8307Z" fill="#A6A6A6"/>
<path d="M77.0315 94.1733H73.3081V95.7959H77.0315V94.1733Z" fill="#EBEBEB"/>
<path d="M107.683 94.1733H79.6521V95.7959H107.683V94.1733Z" fill="#A6A6A6"/>
<path d="M136.891 111.542H126.288V113.165H136.891V111.542Z" fill="#A6A6A6"/>
<path d="M102.796 107.2H76.0222V108.823H102.796V107.2Z" fill="#A6A6A6"/>
<path d="M98.4351 98.5155H79.6521V100.138H98.4351V98.5155Z" fill="#FFC727"/>
<path d="M150.764 102.858H131.981V104.481H150.764V102.858Z" fill="#A6A6A6"/>
<path d="M136.743 98.5155H100.52V100.138H136.743V98.5155Z" fill="#A6A6A6"/>
<path d="M123.864 111.542H76.0222V113.165H123.864V111.542Z" fill="#FFC727"/>
<path d="M162.176 94.1733H135.074V95.7959H162.176V94.1733Z" fill="#FFC727"/>
<path d="M133.536 94.1733H109.444V95.7959H133.536V94.1733Z" fill="#EBEBEB"/>
<path d="M147.912 98.5155H139.777V100.138H147.912V98.5155Z" fill="#EBEBEB"/>
<path d="M77.0315 98.5155H73.3081V100.138H77.0315V98.5155Z" fill="#EBEBEB"/>
<path d="M73.3079 102.858H69.5845V104.481H73.3079V102.858Z" fill="#A6A6A6"/>
<path d="M98.0291 102.858H76.0222V104.481H98.0291V102.858Z" fill="#EBEBEB"/>
<path d="M101.659 115.885H79.6521V117.507H101.659V115.885Z" fill="#EBEBEB"/>
<path d="M141.154 120.227H116.725V121.849H141.154V120.227Z" fill="#FFC727"/>
<path d="M131.742 115.885H103.445V117.507H131.742V115.885Z" fill="#FFC727"/>
<path d="M114.801 120.227H89.3625V121.849H114.801V120.227Z" fill="#EBEBEB"/>
<path d="M87.9255 120.227H79.6521V121.849H87.9255V120.227Z" fill="#A6A6A6"/>
<path d="M149.892 120.227H143.52V121.849H149.892V120.227Z" fill="#A6A6A6"/>
<path d="M134.324 107.2H104.311V108.823H134.324V107.2Z" fill="#EBEBEB"/>
<path d="M158.695 107.2H135.862V108.823H158.695V107.2Z" fill="#FFC727"/>
<path d="M130.251 102.858H100.266V104.481H130.251V102.858Z" fill="#FFC727"/>
<path d="M73.3079 107.2H69.5845V108.823H73.3079V107.2Z" fill="#EBEBEB"/>
<path d="M73.3079 111.542H69.5845V113.165H73.3079V111.542Z" fill="#EBEBEB"/>
<path d="M77.0315 115.885H73.3081V117.507H77.0315V115.885Z" fill="#A6A6A6"/>
<path d="M151.956 115.885H133.858V117.507H151.956V115.885Z" fill="#A6A6A6"/>
<path d="M155.433 123.825H137.335V125.448H155.433V123.825Z" fill="#A6A6A6"/>
<path d="M77.0315 120.227H73.3081V121.849H77.0315V120.227Z" fill="#EBEBEB"/>
<path d="M73.3079 123.863H69.5845V125.486H73.3079V123.863Z" fill="#EBEBEB"/>
<path d="M119.684 123.863H76.0222V125.486H119.684V123.863Z" fill="#EBEBEB"/>
<path d="M172.555 123.863H158.465V125.486H172.555V123.863Z" fill="#EBEBEB"/>
<path d="M134.325 123.863H122.014V125.486H134.325V123.863Z" fill="#FFC727"/>
<path d="M77.0315 128.205H73.3081V129.828H77.0315V128.205Z" fill="#EBEBEB"/>
<path d="M107.683 128.205H79.6521V129.828H107.683V128.205Z" fill="#A6A6A6"/>
<path d="M102.796 141.233H76.0222V142.855H102.796V141.233Z" fill="#A6A6A6"/>
<path d="M98.4351 132.548H79.6521V134.17H98.4351V132.548Z" fill="#FFC727"/>
<path d="M136.743 132.548H100.52V134.17H136.743V132.548Z" fill="#A6A6A6"/>
<path d="M123.864 145.575H76.0222V147.197H123.864V145.575Z" fill="#FFC727"/>
<path d="M162.176 128.205H135.074V129.828H162.176V128.205Z" fill="#FFC727"/>
<path d="M133.536 128.205H109.444V129.828H133.536V128.205Z" fill="#EBEBEB"/>
<path d="M146.706 132.548H138.571V134.17H146.706V132.548Z" fill="#EBEBEB"/>
<path d="M77.0315 132.548H73.3081V134.17H77.0315V132.548Z" fill="#EBEBEB"/>
<path d="M73.3079 136.89H69.5845V138.513H73.3079V136.89Z" fill="#A6A6A6"/>
<path d="M98.0291 136.89H76.0222V138.513H98.0291V136.89Z" fill="#EBEBEB"/>
<path d="M154.848 136.89H132.842V138.513H154.848V136.89Z" fill="#A6A6A6"/>
<path d="M145.524 141.233H104.311V142.855H145.524V141.233Z" fill="#EBEBEB"/>
<path d="M130.251 136.89H100.266V138.513H130.251V136.89Z" fill="#FFC727"/>
<path d="M73.3079 141.233H69.5845V142.855H73.3079V141.233Z" fill="#EBEBEB"/>
<path d="M71.8845 85.5582C72.0127 85.7165 72.0127 85.9543 71.8845 86.1073C71.8184 86.1801 71.7417 86.2168 71.6599 86.2168C71.5731 86.2168 71.4908 86.1801 71.4247 86.1073L69.9889 84.3698C69.9732 84.3638 69.9681 84.3518 69.9631 84.333C69.9581 84.3264 69.9474 84.3204 69.9474 84.3204C69.9373 84.3023 69.9373 84.2896 69.9323 84.2716C69.9217 84.2656 69.9166 84.2536 69.9166 84.2475C69.9116 84.2355 69.9116 84.2168 69.9065 84.2108C69.9065 84.1928 69.8959 84.1868 69.8959 84.1801C69.8959 84.162 69.8959 84.1493 69.8959 84.1373C69.8959 84.1253 69.8909 84.1193 69.8909 84.1006C69.8909 84.0939 69.8959 84.0759 69.8959 84.0699C69.8959 84.0572 69.8959 84.0391 69.8959 84.0271C69.8959 84.0144 69.9065 84.0091 69.9065 84.0024C69.9116 83.9844 69.9116 83.9723 69.9166 83.9536C69.9166 83.9476 69.9217 83.9476 69.9217 83.9416C69.9323 83.9236 69.9373 83.8988 69.9474 83.8868C69.9474 83.8868 69.9474 83.8748 69.9581 83.8748C69.9631 83.8621 69.9732 83.8441 69.9889 83.832L71.4247 82.0946C71.5524 81.9483 71.7618 81.9483 71.8845 82.0946C72.0127 82.2469 72.0127 82.4907 71.8845 82.643L70.6738 84.0999L71.8845 85.5582Z" fill="#FFC727"/>
<path d="M73.1865 85.7533L74.4386 82.1989C74.4997 82.0285 74.6632 81.949 74.811 82.0225C74.9494 82.0893 75.0154 82.2911 74.9544 82.4554L73.7022 86.0158C73.6558 86.1434 73.5488 86.2169 73.4413 86.2169C73.4105 86.2169 73.3702 86.2109 73.3394 86.1928C73.1915 86.1254 73.1254 85.9243 73.1865 85.7533Z" fill="#FFC727"/>
<path d="M77.428 84.3203C77.428 84.3203 77.428 84.3263 77.423 84.3263C77.4123 84.339 77.4022 84.357 77.3866 84.3691L75.9507 86.1065C75.8897 86.1793 75.8023 86.2161 75.7206 86.2161C75.6338 86.2161 75.5576 86.1793 75.491 86.1065C75.3627 85.9536 75.3627 85.7164 75.491 85.5574L76.7017 84.1005L75.491 82.6436C75.3627 82.4913 75.3627 82.2468 75.491 82.0952C75.6136 81.9489 75.823 81.9489 75.9507 82.0952L77.3866 83.8327C77.4022 83.8447 77.4123 83.8627 77.423 83.8754C77.428 83.8754 77.428 83.8874 77.428 83.8874C77.4381 83.9115 77.4482 83.9242 77.4538 83.9422C77.4538 83.9482 77.4588 83.9482 77.4588 83.9542C77.4638 83.9729 77.4638 83.985 77.4739 84.0097C77.4739 84.0157 77.479 84.0157 77.479 84.0277C77.479 84.0397 77.479 84.0578 77.479 84.0705C77.479 84.0765 77.4846 84.0945 77.4846 84.1012C77.4846 84.1072 77.479 84.1252 77.479 84.1313C77.479 84.1493 77.479 84.162 77.479 84.18C77.479 84.186 77.4739 84.186 77.4739 84.192C77.4638 84.2161 77.4638 84.2348 77.4588 84.2468C77.4588 84.2528 77.4538 84.2528 77.4538 84.2649C77.4476 84.2775 77.4381 84.2962 77.428 84.3203Z" fill="#FFC727"/>
<path d="M387.43 284.405H324.735L337.235 197.665H384.117L387.43 284.405Z" fill="#DBDBDB"/>
<path d="M387.43 284.405H381.933L378.848 197.665H384.117L387.43 284.405Z" fill="#A6A6A6"/>
<path d="M335.253 214.731C330.208 238.626 325.224 256.906 319.514 261.381C314.908 264.992 308.44 267.526 301.788 269.3C293.982 271.37 285.894 272.414 280.228 272.975C277.996 273.197 276.137 273.336 274.82 273.447C271.557 273.696 266.216 248.002 268.526 244.867C269.059 244.152 271.208 243.597 274.223 243.141C284.376 241.622 304.366 241.266 305.558 239.911C306.794 238.493 316.986 221.471 325.724 208.095C331.756 198.853 338.05 201.482 335.253 214.731Z" fill="#EB9481"/>
<path d="M281.362 270.855C280.956 271.078 275.198 274.062 271.663 275.117C269.024 275.905 261.379 277.929 260.364 274.551C259.669 272.247 264.047 270.426 267.119 269.055C268.737 268.333 270.763 266.429 270.331 265.187C269.575 263.014 265.406 264.98 262.65 266.73C257.321 270.117 250.17 276.321 247.08 273.023C245.913 271.776 247.379 269.664 249.492 267.624C246.094 269.961 242.489 271.843 241.147 270.519C240.376 269.765 240.37 268.777 240.846 267.668C239.809 268.02 238.905 267.903 238.298 267.079C237.259 265.683 237.847 263.718 239.092 261.731C238.714 261.666 238.381 261.422 238.135 260.919C235.978 256.661 247.788 245.228 251.779 244.286C263.522 241.497 275.869 243.245 275.869 243.245C280.306 247.805 281.372 270.846 281.362 270.855Z" fill="#EB9481"/>
<path d="M264.645 257.157C261.887 257.548 259.124 258.601 256.77 260.381C253.984 262.486 251.732 265.431 249.145 267.837C249.075 267.903 249.165 268.033 249.233 267.964C250.453 266.715 251.787 265.607 253.05 264.416C254.282 263.254 255.493 262.035 256.791 260.978C259.169 259.042 261.798 257.725 264.654 257.214C264.684 257.208 264.676 257.152 264.645 257.157Z" fill="#263238"/>
<path d="M262.658 251.169C259.568 252.032 256.401 252.903 253.508 254.504C250.342 256.256 247.815 259.23 245.332 262.088C243.841 263.805 242.38 265.558 240.957 267.355C240.897 267.43 240.98 267.557 241.045 267.481C243.566 264.526 246.16 261.658 248.828 258.892C251.338 256.29 254.108 254.337 257.259 253.061C259.034 252.342 260.852 251.787 262.668 251.234C262.701 251.224 262.692 251.159 262.658 251.169Z" fill="#263238"/>
<path d="M259.549 245.872C256.554 246.469 253.941 246.978 251.25 248.763C247.687 251.125 244.192 255.215 242.965 256.666C241.61 258.268 240.302 259.923 239.014 261.602C238.961 261.67 239.059 261.781 239.114 261.714C242.052 258.048 245.203 254.582 248.513 251.4C250.095 249.879 251.805 248.57 253.705 247.69C255.585 246.821 257.583 246.37 259.552 245.897C259.565 245.894 259.562 245.869 259.549 245.872Z" fill="#263238"/>
<path d="M331.556 238.816L313.556 226.155C313.556 226.155 321.239 211.349 327.805 204.36C334.37 197.371 337.017 202.854 336.021 213.01C335.024 223.166 331.556 238.816 331.556 238.816Z" fill="#FFC727"/>
<path d="M316.391 222.936C319.276 224.695 326.978 229.749 331.604 233.852C331.632 233.877 331.563 234.021 331.533 234.002C327.238 231.321 319.027 225.216 316.289 223.151C316.237 223.112 316.337 222.904 316.391 222.936Z" fill="#263238"/>
<path d="M315.038 227.202L331.554 238.817C331.554 238.817 335.022 223.169 336.021 213.011C336.66 206.455 335.789 201.847 333.32 201.285L315.038 227.202Z" fill="#263238"/>
<path d="M313.679 284.405H375.813C376.497 282.907 366.314 217.984 345.359 199.704C340.71 195.648 332.462 198.256 330.168 202.2C318.638 222.021 313.679 284.405 313.679 284.405Z" fill="white"/>
<path d="M345.416 199.704C345.416 199.704 337.089 226.274 336.223 238.816C335.97 242.48 333.364 284.581 333.364 284.581H377.225C377.225 284.581 368.501 233.542 354.346 209.848C349.854 202.333 345.416 199.704 345.416 199.704Z" fill="#FFC727"/>
<path d="M332.122 199.314C332.122 199.314 324.735 220.647 322.884 232.72C321.868 239.348 316.72 284.581 316.72 284.581H312.01C312.01 284.581 316.72 236.159 324.175 214.247C328.169 202.51 332.122 199.314 332.122 199.314Z" fill="#FFC727"/>
<path opacity="0.1" d="M339.817 227.657L350.409 229.223C350.409 229.223 349.811 240.95 349.594 241.404C349.377 241.857 343.707 244.638 343.327 244.379C342.946 244.12 338.813 240.515 338.61 240.188C338.361 239.788 339.817 227.657 339.817 227.657Z" fill="black"/>
<path d="M332.608 214.185C336.295 214.988 342.259 207.965 344.495 202.433C344.647 202.053 342.725 187.378 342.598 184.423C342.575 183.816 327.255 189.881 327.255 189.881C327.255 189.881 329.05 195.982 329.246 201.135C329.258 201.566 329.046 213.405 332.608 214.185Z" fill="#EB9481"/>
<path d="M343.566 193.64C336.745 200.654 329.42 199.111 329.09 199.037C328.603 194.462 327.253 189.879 327.253 189.879C327.253 189.879 342.575 183.814 342.597 184.421C342.659 185.811 343.112 189.779 343.566 193.64Z" fill="#263238"/>
<path d="M319.894 160.221C319.894 160.221 315.569 163.961 315.852 170.026C316.135 176.091 318.466 181.873 318.947 182.051C319.429 182.229 319.894 160.221 319.894 160.221Z" fill="#263238"/>
<path d="M341.887 161.802C344.478 167.948 344.299 187.272 341.032 192.241C336.295 199.443 327.199 201.9 321.731 194.742C316.429 187.804 317.037 162.625 320.811 157.946C326.371 151.053 338.059 152.722 341.887 161.802Z" fill="#EB9481"/>
<path opacity="0.3" d="M341.033 192.244C336.296 199.445 327.201 201.896 321.73 194.742C319.793 192.21 318.65 187.254 318.157 181.75C318.157 181.75 319.49 185.664 321.4 185.691C323.304 185.717 323.808 183.546 323.808 183.546L324.603 183.232C324.603 183.232 328.456 186.893 333.546 184.381C338.637 181.863 339.488 174.582 339.488 174.582L343.665 174.809C343.755 181.883 342.898 189.405 341.033 192.244Z" fill="black"/>
<path d="M327.918 176.335C327.927 176.286 328.003 176.397 328.001 176.451C327.959 177.752 328.096 179.251 329.081 179.69C329.112 179.703 329.108 179.769 329.071 179.763C327.868 179.552 327.704 177.56 327.918 176.335Z" fill="#263238"/>
<path d="M328.9 174.983C330.655 174.837 330.771 179.037 329.144 179.172C327.543 179.305 327.427 175.105 328.9 174.983Z" fill="#263238"/>
<path d="M321.899 176.767C321.89 176.717 321.816 176.831 321.819 176.885C321.889 178.184 321.786 179.686 320.812 180.157C320.782 180.172 320.786 180.237 320.822 180.229C322.021 179.98 322.141 177.984 321.899 176.767Z" fill="#263238"/>
<path d="M320.888 175.447C319.13 175.357 319.108 179.558 320.737 179.642C322.341 179.724 322.362 175.522 320.888 175.447Z" fill="#263238"/>
<path d="M330.235 173.009C329.752 172.884 329.324 172.672 328.856 172.49C328.329 172.283 327.891 172.184 327.534 171.64C327.342 171.348 327.404 170.808 327.624 170.56C328.137 169.982 328.835 170.043 329.479 170.26C330.177 170.496 330.664 170.891 331.08 171.598C331.483 172.283 330.873 173.173 330.235 173.009Z" fill="#263238"/>
<path d="M319.468 173.385C319.954 173.271 320.386 173.069 320.856 172.898C321.386 172.703 321.825 172.614 322.191 172.078C322.387 171.791 322.334 171.25 322.118 170.997C321.615 170.407 320.916 170.452 320.269 170.655C319.568 170.874 319.074 171.258 318.647 171.956C318.232 172.632 318.828 173.536 319.468 173.385Z" fill="#263238"/>
<path d="M329.549 188.342C329.295 188.656 329.047 189.087 328.652 189.141C328.273 189.194 327.823 189.007 327.47 188.86C327.436 188.846 327.402 188.891 327.425 188.929C327.722 189.417 328.326 189.706 328.829 189.581C329.32 189.459 329.55 188.94 329.655 188.397C329.669 188.32 329.585 188.296 329.549 188.342Z" fill="#263238"/>
<path d="M328.294 184.492C327.715 185.645 326.835 186.298 325.87 186.56C325.44 186.681 324.984 186.717 324.536 186.686C324.448 186.687 324.36 186.679 324.28 186.661C324.2 186.653 324.128 186.644 324.04 186.627C323.912 186.61 323.839 186.487 323.813 186.345V186.335C323.813 186.288 323.812 186.25 323.82 186.202C323.82 186.202 323.82 186.202 323.82 186.192L323.819 186.077C323.769 185.077 323.808 183.55 323.808 183.55C323.506 183.745 321.965 184.646 321.975 184.122C322.073 179.781 322.181 174.954 323.047 170.659C323.069 170.516 323.253 170.542 323.247 170.685C323.291 174.861 322.72 179.018 322.709 183.214C323.202 182.968 324.005 182.517 324.444 182.51C324.565 182.546 324.324 185.459 324.377 185.906C324.377 185.906 324.377 185.926 324.385 185.954C325.802 186.113 326.851 185.564 328.19 184.38C328.269 184.302 328.357 184.386 328.294 184.492Z" fill="#263238"/>
<path d="M325.018 186.158C325.018 186.158 325.795 187.327 326.827 187.72C327.207 187.866 327.613 187.914 328.033 187.762C328.897 187.455 328.892 186.501 328.71 185.691C328.562 185.025 328.285 184.457 328.285 184.457C328.285 184.457 327.053 185.928 325.018 186.158Z" fill="#263238"/>
<path d="M326.827 187.72C327.207 187.866 327.613 187.914 328.033 187.762C328.897 187.455 328.892 186.501 328.71 185.691C327.779 185.842 326.876 186.634 326.827 187.72Z" fill="#FF99BA"/>
<path d="M343.384 180.371C341.448 181.084 339.209 174.138 338.575 171.468C338.016 169.114 337.366 161.645 337.271 161.136C337.176 160.627 328.833 167.762 323.947 166.07C319.061 164.377 315.79 159.154 315.719 156.715C315.649 154.275 321.704 148.069 326.95 147.742C332.197 147.415 339.31 155.356 339.31 155.356C339.31 155.356 336.892 151.925 336.974 151.642C337.056 151.359 340.448 152.969 341.076 155.848C341.076 155.848 340.4 152.234 340.656 152.166C340.912 152.098 343.551 155.19 342.96 157.538C342.96 157.538 346.011 160.681 346.298 164.132C346.584 167.583 345.659 179.534 343.384 180.371Z" fill="#263238"/>
<path d="M320.474 164.859C321.959 165.671 323.448 166.564 325.09 166.819C326.864 167.095 328.704 166.56 330.354 165.802C332.042 165.027 333.574 163.905 334.967 162.533C336.187 161.331 337.268 159.882 338.571 158.811C338.897 158.543 339.275 159.103 339.075 159.462C337.1 163.009 333.6 165.975 330.224 167.259C326.674 168.61 323.332 167.671 320.455 164.905C320.439 164.888 320.45 164.846 320.474 164.859Z" fill="#263238"/>
<path d="M340.724 177.759C340.724 177.759 343.519 171.039 346.023 172.139C348.527 173.238 346.961 182.532 344.399 184.226C341.837 185.919 340.475 183.121 340.475 183.121L340.724 177.759Z" fill="#EB9481"/>
<path d="M345.519 174.789C345.562 174.777 345.579 174.848 345.544 174.874C343.757 176.135 343.021 178.421 342.595 180.731C343.055 179.789 343.768 179.19 344.813 179.823C344.868 179.857 344.832 179.958 344.776 179.954C343.972 179.896 343.43 180.158 342.997 180.997C342.69 181.592 342.52 182.304 342.33 182.962C342.266 183.181 341.945 183.127 341.98 182.882C341.983 182.864 341.986 182.846 341.989 182.827C341.575 179.94 342.95 175.549 345.519 174.789Z" fill="#263238"/>
<path d="M354.581 207.581C366.626 225.633 382.625 257.255 375.434 263.73C363.612 274.377 329.968 279.222 322.261 279.954C318.934 280.27 313.179 254.146 315.501 250.915C317.823 247.684 353.245 247.025 353.58 244.45C353.77 242.99 348.837 229.962 345.913 214.135C342.542 195.886 351.186 202.492 354.581 207.581Z" fill="#EB9481"/>
<path d="M321.364 249.066C321.364 249.066 311.225 248.486 304.58 248.478C300.873 248.474 294.516 249.143 291.791 250.626C287.716 252.845 271.858 265.227 274.291 269.878C276.495 274.088 288.986 261.386 288.986 261.386C288.986 261.386 275.432 272.874 278.866 277.361C282.3 281.849 294.814 265.259 294.814 265.259C294.814 265.259 281.109 277.436 285.264 281.395C288.404 284.387 300.448 270.123 300.448 270.123C300.448 270.123 288.729 280.685 291.847 283.929C295.292 287.512 307.102 275.178 307.102 275.178C316.192 281.83 322.801 280.562 327.412 278.992C328.529 278.613 321.364 249.066 321.364 249.066Z" fill="#EB9481"/>
<path d="M293.461 257.056C291.828 258.336 290.167 259.619 288.635 261.069C287.103 262.519 285.612 264.033 284.2 265.646C280.736 269.602 279.087 272.726 279.206 272.546C282.033 268.296 287.45 263.006 288.984 261.556C290.512 260.11 291.981 258.571 293.51 257.123C293.548 257.086 293.5 257.025 293.461 257.056Z" fill="#263238"/>
<path d="M297.949 263.559C295.923 265.302 293.858 266.944 291.896 268.794C289.944 270.635 287.28 273.327 285.439 275.323C285.297 275.477 285.423 275.785 285.571 275.637C287.477 273.73 290.299 271.134 292.224 269.254C294.143 267.38 296.014 265.403 297.988 263.614C298.018 263.586 297.98 263.533 297.949 263.559Z" fill="#263238"/>
<path d="M302.642 268.316C299.432 270.791 296.608 273.969 293.9 277.165C293.765 277.324 293.92 277.357 294.066 277.203C296.926 274.197 299.151 271.813 302.715 268.449C302.77 268.396 302.71 268.263 302.642 268.316Z" fill="#263238"/>
<path d="M322.804 248.756C318.177 248.495 304.588 247.798 299.959 247.999C295.878 248.177 292.46 249.064 288.939 251.604C281.39 257.048 276.421 263.634 275.177 265.604C274.423 266.798 273.316 268.703 274.219 270.112C275.318 271.826 279.639 270.414 284.302 265.774C284.47 265.607 284.372 265.493 284.2 265.645C277.677 271.448 275.184 270.621 274.561 269.545C274.158 268.848 274.609 267.699 275.022 266.823C275.621 265.555 276.533 264.41 277.38 263.381C280.306 259.826 283.803 256.605 287.275 253.848C291.268 250.676 295.451 248.978 300.251 248.74C304.993 248.505 318.075 249.282 322.815 248.966C322.915 248.96 322.903 248.761 322.804 248.756Z" fill="#263238"/>
<path d="M278.195 274.902C278.508 273.406 279.464 272.077 280.226 270.867C281.166 269.374 282.194 267.911 283.369 266.671C283.421 266.616 283.502 266.693 283.453 266.759C282.474 268.068 281.506 269.368 280.663 270.81C280.204 271.593 279.784 272.396 279.406 273.237C279.043 274.043 278.62 274.977 278.76 275.921C279.028 277.732 280.938 277.78 282.084 277.35C282.829 277.071 283.542 276.666 284.231 276.231C284.943 275.78 286.269 274.648 286.891 274.032C286.963 273.96 287.141 273.998 287.069 274.075C285.32 275.91 281.995 279.736 279.44 278.149C278.419 277.516 277.915 276.244 278.195 274.902Z" fill="#263238"/>
<path d="M369.423 226.236L350.178 235.948C350.178 235.948 344.781 219.77 343.982 209.316C343.184 198.863 348.453 199.592 354.7 206.593C360.947 213.594 369.423 226.236 369.423 226.236Z" fill="#FFC727"/>
<path d="M349.698 231.314C352.6 229.597 360.59 225.225 366.108 223.233C366.141 223.221 366.197 223.373 366.166 223.391C361.804 225.911 352.803 230.145 349.782 231.54C349.725 231.566 349.644 231.347 349.698 231.314Z" fill="#263238"/>
<path d="M345.499 222.69C345.49 222.655 345.532 222.636 345.548 222.666C345.938 223.452 346.289 224.25 346.626 225.069C346.2 223.26 345.811 221.441 345.456 219.619C345.443 219.554 345.522 219.532 345.54 219.594C347.103 224.908 348.776 230.185 350.246 235.538C350.746 235.477 351.249 235.405 351.742 235.291C351.825 235.272 351.857 235.415 351.775 235.445C351.24 235.637 350.714 235.877 350.197 236.127C350.08 236.183 349.911 236.179 349.85 236.014C348.741 233.003 347.82 229.888 347.028 226.728C346.799 226.253 346.575 225.775 346.376 225.284C346.033 224.436 345.738 223.588 345.499 222.69Z" fill="#263238"/>
<path d="M42.0945 284.405H104.789L92.2884 197.665H45.4069L42.0945 284.405Z" fill="#DBDBDB"/>
<path d="M42.0945 284.405H47.5914L50.6765 197.665H45.4069L42.0945 284.405Z" fill="#A6A6A6"/>
<path d="M108.143 229.224C107.583 229.228 104.963 229.258 101.132 229.311C99.8643 226.536 98.4178 221.637 99.2746 214.744C99.423 213.603 96.8593 220.133 97.5699 229.359C90.1667 229.452 80.0957 229.572 71.2998 229.584C71.2309 225.704 71.0114 222.114 71.0114 222.114C70.6373 224.904 70.042 227.417 69.3868 229.594C68.1839 229.606 67.0051 229.592 65.8751 229.592C66.2895 223.576 65.6544 213.075 65.6544 213.075C64.6683 220.359 62.4523 226.155 60.8759 229.567C55.2933 229.507 51.6231 229.354 51.8667 229.059C60.5971 218.246 54.5776 211.858 57.2298 202.262C60.4123 190.763 69.2692 189.058 69.2339 180.387C69.2211 173.331 68.777 160.525 76.7368 157.905C76.7368 157.905 83.3594 150.06 93.3218 154.577C105.647 160.151 100.146 181.828 100.881 186.264C101.926 192.601 104.531 194.867 106.332 202.103C108.171 209.426 105.103 214.225 104.64 219.166C104.195 224.102 109.545 229.23 108.143 229.224Z" fill="#263238"/>
<path d="M51.6577 227.492C52.8348 225.556 53.8921 223.513 54.5294 221.357C55.2238 219.216 55.0037 217.011 54.6789 214.734C54.3547 212.469 53.9571 210.152 53.8333 207.751C53.7331 205.36 53.8759 202.85 54.6386 200.499C55.3649 198.142 56.6283 196.011 58.1632 194.291C59.6831 192.543 61.4101 191.144 63.0772 189.762C64.7292 188.362 66.3768 186.981 67.6334 185.188C68.9164 183.424 69.7256 181.237 70.0358 178.916C70.0576 181.252 69.4439 183.661 68.2416 185.68C67.0532 187.715 65.4281 189.341 63.8243 190.844C62.2193 192.358 60.6065 193.798 59.2457 195.456C57.8933 197.112 56.7974 198.991 56.1825 201.079C55.562 203.16 55.3425 205.388 55.426 207.641C55.482 209.9 55.795 212.173 56.0028 214.518C56.0974 215.692 56.178 216.888 56.1108 218.114C56.0492 219.343 55.7424 220.585 55.3117 221.687C54.4056 223.892 53.1333 225.82 51.6577 227.492Z" fill="#263238"/>
<path d="M100.16 162.766C101.061 165.454 101.346 168.357 101.636 171.206C101.879 174.071 101.997 176.946 102.088 179.808L102.248 184.082C102.304 185.51 102.429 186.852 102.712 188.171C103.261 190.821 104.51 193.143 105.927 195.507C106.612 196.706 107.306 197.953 107.865 199.303C108.425 200.649 108.864 202.074 109.143 203.536C109.383 205.014 109.532 206.461 109.575 207.943C109.625 209.422 109.515 210.934 109.244 212.395C108.978 213.861 108.575 215.246 108.233 216.604C107.887 217.959 107.651 219.351 107.542 220.734C107.284 223.475 108.497 226.233 110.416 228.057C108.273 226.564 106.746 223.764 106.752 220.718C106.755 219.237 106.927 217.775 107.193 216.338C107.451 214.902 107.807 213.53 107.981 212.162C108.356 209.452 108.124 206.616 107.615 203.945C107.322 202.624 106.934 201.341 106.405 200.117C105.884 198.89 105.225 197.728 104.534 196.546C103.856 195.356 103.147 194.134 102.551 192.809C101.957 191.486 101.467 190.069 101.185 188.598C100.909 187.128 100.815 185.608 100.799 184.173C100.766 182.724 100.78 181.288 100.797 179.854C100.818 176.986 100.875 174.127 100.827 171.274C100.809 168.418 100.696 165.565 100.16 162.766Z" fill="#263238"/>
<path d="M84.2685 214.762C88.2596 235.493 96.3376 261.742 102.579 267.037C107.614 271.309 134.025 278.834 135.497 279.023C139.143 279.463 146.344 248.738 142.564 247.491C137.802 245.917 115.168 245.078 113.88 243.501C112.544 241.851 104.307 228.546 94.9813 213.132C88.5452 202.48 81.7916 201.898 84.2685 214.762Z" fill="#C95F50"/>
<path d="M132.57 277.335C133.005 277.597 139.172 281.297 142.985 282.615C145.83 283.599 154.083 286.168 155.302 282.54C156.136 280.066 151.432 277.874 148.135 276.234C146.398 275.371 144.257 273.202 144.769 271.87C145.665 269.541 150.137 271.88 153.078 273.919C158.764 277.86 166.34 284.955 169.814 281.514C171.126 280.212 169.601 277.844 167.371 275.52C170.991 278.228 174.851 280.448 176.356 279.071C177.22 278.288 177.261 277.212 176.78 275.983C177.897 276.416 178.885 276.331 179.573 275.463C180.751 273.994 180.177 271.826 178.89 269.604C179.302 269.552 179.673 269.302 179.958 268.766C182.45 264.235 169.98 251.225 165.667 250.007C152.978 246.41 139.481 247.721 139.481 247.721C134.496 252.474 132.56 277.325 132.57 277.335Z" fill="#C95F50"/>
<path d="M151.228 263.402C154.217 263.96 157.158 265.293 159.692 267.288C162.908 269.82 165.042 272.785 167.741 275.77C167.812 275.848 167.712 275.982 167.641 275.903C166.355 274.484 161.026 269.15 159.65 267.937C157.127 265.716 154.308 264.156 151.218 263.463C151.184 263.456 151.195 263.396 151.228 263.402Z" fill="#263238"/>
<path d="M153.593 256.98C156.927 258.067 160.345 259.167 163.439 261.049C166.827 263.107 169.477 266.465 172.084 269.695C173.649 271.635 175.18 273.613 176.669 275.637C176.732 275.722 176.636 275.856 176.569 275.771C173.925 272.433 171.197 269.188 168.386 266.049C165.742 263.097 162.793 260.838 159.406 259.298C157.498 258.431 155.538 257.739 153.581 257.05C153.544 257.037 153.555 256.967 153.593 256.98Z" fill="#263238"/>
<path d="M157.155 251.363C160.395 252.157 163.221 252.836 166.09 254.907C169.889 257.649 173.555 262.269 174.841 263.907C176.263 265.716 177.631 267.58 178.977 269.469C179.032 269.546 178.921 269.661 178.864 269.585C175.79 265.454 172.477 261.531 168.98 257.909C167.309 256.178 165.493 254.67 163.454 253.622C161.438 252.586 159.277 251.999 157.15 251.39C157.136 251.386 157.141 251.36 157.155 251.363Z" fill="#263238"/>
<path d="M113.685 240.477L89.3415 239.246C89.3415 239.246 84.9209 224.857 83.2952 212.083C81.669 199.309 90.7919 203.894 99.8292 217.651C108.866 231.408 113.685 240.477 113.685 240.477Z" fill="#FFC727"/>
<path d="M89.9021 213.68C89.7453 213.834 89.6053 213.914 89.4373 213.96C89.1125 214.034 88.7933 213.92 88.5693 213.64C88.2221 213.232 87.6565 213.119 87.2309 213.366C87.0181 213.466 86.8389 213.7 86.7325 213.887C86.6205 214.087 86.4973 214.274 86.3965 214.488C86.5757 214.368 86.7325 214.221 86.9005 214.087C87.0685 213.927 87.1973 213.84 87.3653 213.793C87.6789 213.7 88.0149 213.8 88.2333 214.061C88.5581 214.468 89.1237 214.622 89.5605 214.395C89.7733 214.294 89.9581 214.081 90.0701 213.887C90.1821 213.687 90.3053 213.5 90.4061 213.279C90.2269 213.406 90.0701 213.553 89.9021 213.68ZM91.2349 227.113C91.1957 226.88 91.1733 226.639 91.1173 226.405C91.0613 226.639 91.0389 226.88 90.9941 227.113C90.9717 227.367 90.9325 227.541 90.8429 227.715C90.6749 228.049 90.3781 228.256 90.0701 228.256C89.5941 228.242 89.1069 228.61 88.9389 229.137C88.8437 229.391 88.8381 229.699 88.8717 229.932C88.9109 230.166 88.9389 230.407 88.9949 230.64C89.0509 230.407 89.0733 230.166 89.1125 229.932C89.1349 229.692 89.1853 229.518 89.2805 229.344C89.4653 229.017 89.7565 228.83 90.0757 228.837C90.5685 228.83 91.0389 228.436 91.1901 227.902C91.2797 227.648 91.2741 227.334 91.2349 227.113ZM108.533 237.915C108.528 237.935 108.522 237.948 108.511 237.975C108.343 238.309 108.04 238.523 107.732 238.516C107.262 238.509 106.769 238.877 106.601 239.405C106.512 239.625 106.495 239.899 106.523 240.119L106.786 240.133C106.814 239.926 106.859 239.765 106.943 239.612C107.122 239.284 107.413 239.091 107.744 239.097C108.119 239.097 108.483 238.863 108.701 238.516C108.701 238.516 108.701 238.516 108.701 238.509C108.645 238.316 108.589 238.115 108.533 237.915ZM98.4365 239.151C98.2685 239.311 98.1397 239.398 97.9717 239.445C97.6581 239.538 97.3221 239.431 97.1093 239.171C96.7789 238.763 96.2133 238.61 95.7821 238.843C95.5637 238.944 95.3789 239.157 95.2669 239.351C95.2333 239.418 95.1941 239.478 95.1549 239.538L95.4349 239.552C95.5917 239.405 95.7373 239.324 95.8997 239.278C96.2245 239.204 96.5437 239.318 96.7677 239.592C96.7789 239.605 96.7901 239.618 96.8013 239.625L98.3301 239.698C98.4421 239.598 98.5373 239.465 98.6045 239.351C98.7165 239.151 98.8397 238.964 98.9405 238.75C98.7613 238.87 98.6045 239.017 98.4365 239.151ZM102.894 224.101C102.692 224.074 102.547 224.014 102.407 223.907C102.132 223.687 101.97 223.339 101.981 222.952C101.976 222.364 101.645 221.809 101.197 221.622C100.984 221.516 100.721 221.529 100.536 221.569C100.335 221.622 100.139 221.649 99.9373 221.716C100.139 221.783 100.335 221.809 100.536 221.856C100.744 221.883 100.889 221.936 101.035 222.037C101.315 222.237 101.488 222.598 101.488 222.965C101.477 223.526 101.785 224.114 102.233 224.314C102.446 224.428 102.698 224.435 102.894 224.388C103.096 224.341 103.292 224.314 103.488 224.248C103.292 224.181 103.096 224.154 102.894 224.101Z" fill="white"/>
<path d="M88.5108 232.942C93.7753 232.782 99.0573 233.06 104.321 233.463C105.81 233.576 107.297 233.732 108.78 233.929C108.821 233.934 108.826 234.008 108.782 234.008C106.152 234.022 103.522 233.907 100.891 233.811C98.2531 233.715 95.6121 233.593 92.9762 233.408C91.4877 233.304 90.0004 233.201 88.5136 233.061C88.4503 233.055 88.4447 232.944 88.5108 232.942Z" fill="#263238"/>
<path d="M110.409 240.313L89.342 239.244C89.342 239.244 84.918 224.855 83.294 212.083C82.6052 206.646 83.8596 204.355 86.2228 204.575H86.2284L110.409 240.313Z" fill="#263238"/>
<path d="M104.823 284.329H45.312C45.312 284.329 58.2374 224.783 70.2012 208.02C70.4683 207.633 70.745 207.269 71.0216 206.928C71.0787 206.848 71.1263 206.791 71.184 206.723C72.2144 205.437 73.2924 204.469 74.3799 203.775C74.5899 203.638 74.7999 203.513 75.0189 203.399C79.6271 200.873 84.493 202.967 88.0036 206.552C89.1197 207.69 101.733 227.264 102.849 234.73C103.812 241.319 100.082 248.398 100.082 248.398L104.823 284.329Z" fill="#FFC727"/>
<path d="M78.2434 221.569C78.0418 221.542 77.8962 221.482 77.7562 221.375C77.4818 221.155 77.3194 220.807 77.3306 220.42C77.325 219.832 76.9946 219.278 76.5466 219.091C76.3338 218.984 76.0706 218.997 75.8858 219.037C75.6842 219.084 75.4882 219.117 75.2922 219.184C75.4882 219.244 75.6842 219.278 75.8858 219.324C76.093 219.351 76.2386 219.398 76.3842 219.505C76.6642 219.705 76.8434 220.066 76.8378 220.427C76.8322 220.994 77.1402 221.582 77.5826 221.783C77.7954 221.896 78.053 221.903 78.2434 221.856C78.445 221.809 78.641 221.783 78.8426 221.716C78.641 221.649 78.445 221.616 78.2434 221.569ZM89.225 268.429C89.0234 268.396 88.8778 268.336 88.7378 268.229C88.4634 268.008 88.301 267.661 88.3122 267.273C88.3066 266.686 87.9762 266.131 87.5282 265.944C87.3154 265.844 87.0522 265.851 86.8674 265.897C86.6658 265.944 86.4698 265.971 86.2738 266.038C86.4698 266.104 86.6658 266.131 86.8674 266.178C87.0746 266.211 87.2202 266.258 87.3658 266.358C87.6458 266.565 87.825 266.919 87.8194 267.287C87.8138 267.855 88.1218 268.436 88.5642 268.636C88.777 268.75 89.0346 268.756 89.225 268.716C89.4266 268.663 89.6226 268.636 89.8242 268.569C89.6226 268.503 89.4266 268.476 89.225 268.429ZM62.6698 241.175C62.4682 241.148 62.3226 241.088 62.1826 240.981C61.9082 240.761 61.7458 240.413 61.7514 240.026C61.7514 239.438 61.421 238.883 60.973 238.696C60.7602 238.59 60.497 238.603 60.3122 238.643C60.1106 238.69 59.9146 238.723 59.713 238.783C59.9146 238.85 60.1106 238.883 60.3122 238.93C60.5194 238.957 60.665 239.004 60.8106 239.111C61.0906 239.311 61.2642 239.672 61.2642 240.032C61.253 240.6 61.561 241.188 62.009 241.388C62.2162 241.502 62.4738 241.509 62.6698 241.462C62.8714 241.415 63.0674 241.382 63.2634 241.322C63.0674 241.255 62.8714 241.221 62.6698 241.175ZM86.1282 284.107C85.9266 284.08 85.781 284.02 85.6354 283.913C85.361 283.693 85.2042 283.346 85.2098 282.958C85.2042 282.37 84.8738 281.816 84.4258 281.629C84.213 281.522 83.9498 281.535 83.765 281.575C83.569 281.622 83.3674 281.656 83.1714 281.716C83.3674 281.782 83.569 281.816 83.765 281.863C83.9778 281.889 84.1234 281.936 84.269 282.043C84.549 282.243 84.7226 282.604 84.7226 282.965C84.7114 283.533 85.0194 284.12 85.4618 284.321C85.4674 284.321 85.473 284.328 85.4786 284.328H86.425C86.5258 284.307 86.621 284.287 86.7218 284.254C86.5258 284.187 86.3242 284.154 86.1282 284.107ZM74.5754 261.041C74.3794 261.008 74.2282 260.948 74.0882 260.841C73.8138 260.62 73.6514 260.273 73.6626 259.885C73.657 259.298 73.3266 258.743 72.8786 258.563C72.6658 258.456 72.4026 258.463 72.2178 258.509C72.0162 258.556 71.8202 258.583 71.6242 258.65C71.8202 258.716 72.0162 258.743 72.2178 258.79C72.425 258.823 72.5706 258.87 72.7162 258.97C72.9962 259.177 73.1754 259.531 73.1698 259.899C73.1642 260.467 73.4722 261.048 73.9146 261.248C74.1274 261.362 74.385 261.368 74.5754 261.328C74.777 261.275 74.973 261.248 75.1746 261.181C74.973 261.115 74.777 261.088 74.5754 261.041ZM45.7746 282.444C45.7578 282.444 45.7466 282.437 45.7354 282.43H45.7298C45.7074 282.537 45.685 282.644 45.6626 282.744C45.7018 282.744 45.741 282.738 45.7746 282.731C45.9706 282.678 46.1666 282.651 46.3682 282.584C46.1666 282.517 45.9706 282.484 45.7746 282.444ZM53.2114 265.229C53.0098 265.203 52.8642 265.143 52.7242 265.036C52.4498 264.815 52.2874 264.468 52.2986 264.08C52.293 263.493 51.9626 262.938 51.5146 262.751C51.3018 262.644 51.0386 262.658 50.8538 262.698C50.7362 262.724 50.6186 262.751 50.501 262.778C50.4898 262.818 50.4786 262.858 50.4674 262.898C50.5962 262.931 50.725 262.952 50.8538 262.985C51.061 263.012 51.2066 263.058 51.3522 263.165C51.6322 263.366 51.8058 263.726 51.8058 264.087C51.7946 264.655 52.1026 265.243 52.5506 265.443C52.7634 265.557 53.0154 265.563 53.2114 265.517C53.413 265.47 53.609 265.443 53.805 265.376C53.609 265.31 53.413 265.276 53.2114 265.229ZM84.4146 241.743C84.213 241.709 84.0618 241.649 83.9218 241.542C83.6474 241.322 83.4906 240.974 83.4962 240.587C83.4906 239.999 83.1602 239.445 82.7122 239.264C82.4994 239.157 82.2362 239.164 82.0514 239.211C81.8554 239.258 81.6538 239.284 81.4578 239.351C81.6538 239.418 81.8554 239.445 82.0514 239.491C82.2642 239.525 82.4042 239.572 82.5554 239.672C82.8298 239.879 83.009 240.233 83.0034 240.6C82.9978 241.168 83.3058 241.749 83.7482 241.95C83.961 242.063 84.2186 242.07 84.4146 242.03C84.6106 241.976 84.8122 241.95 85.0082 241.883C84.8122 241.816 84.6106 241.789 84.4146 241.743ZM100.828 254.034C100.66 254 100.526 253.94 100.397 253.847C100.123 253.626 99.9658 253.279 99.9714 252.891C99.9714 252.304 99.6354 251.749 99.1874 251.562C98.9746 251.462 98.7114 251.469 98.5266 251.515C98.3306 251.562 98.1346 251.589 97.933 251.656C98.1346 251.722 98.3306 251.749 98.5266 251.796C98.7394 251.829 98.885 251.876 99.0306 251.976C99.3106 252.183 99.4842 252.537 99.4842 252.905C99.473 253.473 99.781 254.054 100.223 254.254C100.431 254.361 100.677 254.374 100.867 254.334L100.828 254.034ZM98.437 239.151C98.269 239.311 98.1402 239.398 97.9722 239.445C97.6586 239.538 97.3226 239.431 97.1098 239.171C96.7794 238.763 96.2138 238.61 95.7826 238.843C95.5642 238.944 95.3794 239.157 95.2674 239.351C95.1554 239.551 95.0322 239.739 94.9314 239.952C95.1106 239.832 95.2674 239.685 95.4354 239.551C95.5922 239.405 95.7378 239.324 95.9002 239.278C96.225 239.204 96.5442 239.318 96.7682 239.592C97.1154 240.006 97.681 240.119 98.1066 239.872C98.3194 239.765 98.4986 239.538 98.605 239.351C98.717 239.151 98.8402 238.964 98.941 238.75C98.7618 238.87 98.605 239.017 98.437 239.151ZM78.2434 203.039C78.2042 202.818 78.1818 202.591 78.137 202.371C78.1258 202.364 78.1202 202.364 78.1146 202.371C78.0698 202.591 78.0474 202.818 78.0082 203.039C77.9858 203.292 77.941 203.466 77.857 203.64C77.6834 203.967 77.3866 204.181 77.0786 204.174C76.6082 204.168 76.1154 204.535 75.9474 205.063C75.8522 205.316 75.8466 205.624 75.8858 205.858C75.925 206.091 75.9474 206.332 76.0034 206.566C76.0594 206.332 76.0818 206.091 76.1266 205.858C76.149 205.617 76.1994 205.437 76.289 205.27C76.4738 204.942 76.765 204.755 77.0898 204.762C77.5826 204.755 78.0474 204.361 78.2042 203.827C78.2882 203.573 78.2826 203.259 78.2434 203.039ZM73.517 244.675C73.4778 244.441 73.4554 244.207 73.3994 243.967C73.3434 244.207 73.321 244.441 73.2762 244.675C73.2538 244.929 73.2146 245.103 73.125 245.276C72.957 245.61 72.6602 245.817 72.3522 245.817C71.8762 245.804 71.389 246.171 71.2154 246.706C71.1202 246.953 71.1202 247.26 71.1538 247.494C71.193 247.728 71.221 247.968 71.277 248.202C71.333 247.968 71.3554 247.728 71.3946 247.494C71.417 247.254 71.4674 247.08 71.5626 246.906C71.7418 246.586 72.0386 246.392 72.3578 246.398C72.8506 246.398 73.3154 246.004 73.4722 245.463C73.5618 245.209 73.5506 244.895 73.517 244.675ZM98.1178 275.664C98.0786 275.423 98.0506 275.189 97.9946 274.949C97.9442 275.189 97.9162 275.423 97.877 275.664C97.8546 275.911 97.8154 276.084 97.7258 276.258C97.5578 276.592 97.2554 276.799 96.953 276.799C96.477 276.786 95.9842 277.153 95.8162 277.688C95.721 277.935 95.7154 278.242 95.7546 278.476C95.7938 278.71 95.8162 278.95 95.8722 279.184C95.9282 278.95 95.9562 278.71 95.9954 278.476C96.0178 278.235 96.0682 278.062 96.1578 277.888C96.3426 277.567 96.6338 277.374 96.9586 277.38C97.4514 277.38 97.9162 276.986 98.073 276.452C98.1626 276.191 98.1514 275.877 98.1178 275.664ZM63.6946 222.07C63.6554 221.829 63.6274 221.596 63.577 221.355C63.521 221.596 63.493 221.829 63.4538 222.07C63.4314 222.317 63.3922 222.491 63.3026 222.664C63.1682 222.932 62.9498 223.112 62.7146 223.179C62.6306 223.379 62.5522 223.586 62.4738 223.793H62.5354C63.0282 223.787 63.493 223.393 63.6498 222.858C63.7394 222.604 63.7282 222.29 63.6946 222.07ZM91.2354 227.113C91.1962 226.88 91.1738 226.639 91.1178 226.405C91.0618 226.639 91.0394 226.88 90.9946 227.113C90.9722 227.367 90.933 227.541 90.8434 227.715C90.6754 228.049 90.3786 228.256 90.0706 228.256C89.5946 228.242 89.1074 228.61 88.9394 229.137C88.8442 229.391 88.8386 229.698 88.8722 229.932C88.9114 230.166 88.9394 230.407 88.9954 230.64C89.0514 230.407 89.0738 230.166 89.113 229.932C89.1354 229.692 89.1858 229.518 89.281 229.344C89.4658 229.017 89.757 228.83 90.0762 228.837C90.569 228.83 91.0394 228.436 91.1906 227.902C91.2802 227.648 91.2746 227.334 91.2354 227.113ZM65.7834 269.277C65.7386 269.044 65.7162 268.81 65.6602 268.569C65.6042 268.81 65.5818 269.044 65.5426 269.277C65.5202 269.531 65.4754 269.705 65.3914 269.879C65.2178 270.213 64.921 270.42 64.613 270.42C64.1426 270.406 63.6498 270.774 63.4818 271.302C63.3866 271.555 63.381 271.863 63.4202 272.096C63.4594 272.33 63.4818 272.571 63.5378 272.805C63.5938 272.571 63.6162 272.33 63.661 272.096C63.6834 271.856 63.7338 271.682 63.8234 271.509C64.0082 271.181 64.2994 270.994 64.6242 271.001C65.117 270.994 65.5818 270.6 65.7386 270.066C65.8282 269.812 65.817 269.498 65.7834 269.277ZM89.9026 213.68C89.7458 213.833 89.6058 213.914 89.4378 213.96C89.113 214.034 88.7938 213.92 88.5698 213.64C88.2226 213.232 87.657 213.119 87.2314 213.366C87.0186 213.466 86.8394 213.7 86.733 213.887C86.621 214.087 86.4978 214.274 86.397 214.488C86.5762 214.368 86.733 214.221 86.901 214.087C87.069 213.927 87.1978 213.84 87.3658 213.793C87.6794 213.7 88.0154 213.8 88.2338 214.061C88.5586 214.468 89.1242 214.622 89.561 214.395C89.7738 214.294 89.9586 214.081 90.0706 213.887C90.1826 213.687 90.3058 213.499 90.4066 213.279C90.2274 213.406 90.0706 213.553 89.9026 213.68ZM73.8362 231.041C73.6794 231.195 73.5394 231.275 73.3714 231.315C73.0466 231.389 72.7274 231.282 72.5034 231.001C72.1562 230.587 71.5906 230.473 71.165 230.721C70.9522 230.827 70.773 231.055 70.6666 231.242C70.5546 231.442 70.4314 231.629 70.3306 231.843C70.5098 231.723 70.6666 231.576 70.8346 231.442C71.0026 231.288 71.1314 231.201 71.2994 231.148C71.613 231.061 71.949 231.161 72.1674 231.422C72.4922 231.829 73.0578 231.983 73.4946 231.749C73.7074 231.649 73.8922 231.442 74.0042 231.242C74.1162 231.041 74.2394 230.854 74.3402 230.64C74.161 230.761 74.0042 230.908 73.8362 231.041ZM62.9498 256.612C62.793 256.766 62.653 256.846 62.4906 256.893C62.1658 256.966 61.8466 256.853 61.6226 256.572C61.2698 256.165 60.7098 256.051 60.2786 256.298C60.0658 256.398 59.8866 256.632 59.7802 256.819C59.6682 257.02 59.545 257.207 59.4442 257.42C59.6234 257.3 59.7802 257.153 59.9538 257.02C60.1162 256.859 60.245 256.773 60.413 256.726C60.7322 256.632 61.0682 256.732 61.281 256.993C61.6114 257.4 62.177 257.554 62.6082 257.327C62.8266 257.227 63.0114 257.013 63.1234 256.819C63.2354 256.619 63.3586 256.432 63.4594 256.211C63.2802 256.332 63.1234 256.485 62.9498 256.612ZM67.6594 283.185C67.497 283.339 67.357 283.419 67.1946 283.466C66.8698 283.539 66.5506 283.426 66.3266 283.145C65.9738 282.738 65.4138 282.624 64.9826 282.871C64.7698 282.971 64.5906 283.205 64.4842 283.392C64.3778 283.593 64.2546 283.78 64.1482 283.994C64.333 283.873 64.4898 283.726 64.6578 283.593C64.8202 283.432 64.9546 283.346 65.117 283.299C65.4362 283.205 65.7722 283.305 65.985 283.566C66.3154 283.973 66.881 284.127 67.3122 283.9C67.5306 283.8 67.7154 283.586 67.8274 283.392C67.9394 283.192 68.0626 283.005 68.1634 282.784C67.9842 282.905 67.8274 283.058 67.6594 283.185ZM88.721 253.987C88.5586 254.134 88.4186 254.221 88.2562 254.261C87.9314 254.334 87.6122 254.227 87.3882 253.947C87.0354 253.533 86.4754 253.419 86.0442 253.666C85.8314 253.773 85.6522 254 85.5514 254.187C85.4394 254.388 85.3162 254.575 85.2098 254.789C85.3946 254.668 85.5514 254.521 85.7194 254.388C85.8818 254.234 86.0162 254.147 86.1786 254.094C86.4978 254 86.8338 254.107 87.0466 254.368C87.377 254.775 87.9426 254.929 88.3738 254.695C88.5922 254.595 88.777 254.381 88.889 254.187C89.001 253.987 89.1242 253.8 89.225 253.586C89.0458 253.706 88.889 253.853 88.721 253.987ZM102.245 264.802C102.111 264.748 101.987 264.655 101.887 264.528C101.534 264.121 100.968 264.007 100.543 264.247C100.33 264.354 100.151 264.588 100.044 264.768C99.9322 264.976 99.809 265.163 99.7082 265.376C99.8874 265.256 100.044 265.109 100.212 264.976C100.38 264.815 100.509 264.728 100.677 264.675C100.991 264.588 101.327 264.688 101.545 264.949C101.747 265.196 102.032 265.35 102.323 265.376L102.245 264.802ZM78.8314 272.604C78.669 272.751 78.529 272.838 78.3666 272.878C78.0418 272.951 77.7226 272.845 77.4986 272.564C77.1458 272.15 76.5858 272.036 76.1602 272.283C75.9474 272.39 75.7626 272.617 75.6618 272.805C75.5498 273.005 75.4266 273.192 75.3258 273.406C75.505 273.285 75.6618 273.139 75.8298 273.005C75.9922 272.851 76.1266 272.764 76.289 272.711C76.6082 272.617 76.9442 272.724 77.157 272.985C77.4874 273.392 78.053 273.546 78.4842 273.312C78.7026 273.212 78.8874 273.005 78.9994 272.805C79.1114 272.604 79.2346 272.417 79.3354 272.203C79.1562 272.324 78.9994 272.471 78.8314 272.604ZM56.3922 276.265C56.2298 276.412 56.0898 276.499 55.9274 276.539C55.6026 276.612 55.2834 276.505 55.0594 276.225C54.7066 275.811 54.1466 275.697 53.721 275.944C53.5026 276.051 53.3234 276.278 53.2226 276.465C53.1106 276.666 52.9874 276.853 52.881 277.066C53.0658 276.946 53.2226 276.799 53.3906 276.666C53.553 276.512 53.6874 276.425 53.8498 276.372C54.169 276.278 54.505 276.385 54.7178 276.646C55.0482 277.053 55.6138 277.207 56.045 276.973C56.2634 276.873 56.4482 276.666 56.5602 276.465C56.6722 276.265 56.7954 276.078 56.8962 275.864C56.717 275.984 56.5602 276.131 56.3922 276.265Z" fill="white"/>
<path d="M91.1514 245.848C88.6264 246.184 86.0935 246.624 83.6345 247.403C82.4109 247.79 81.2114 248.243 80.013 248.728C79.4155 248.969 78.8152 249.186 78.2109 249.4C77.5904 249.62 76.9246 249.825 76.275 249.857C76.2168 249.859 76.219 249.963 76.2772 249.965C76.9095 249.979 77.5148 249.99 78.1448 249.904C78.7435 249.822 79.3382 249.663 79.9223 249.485C81.166 249.106 82.3947 248.658 83.6351 248.264C86.1377 247.469 88.6398 246.675 91.185 246.096C91.3015 246.07 91.2707 245.832 91.1514 245.848Z" fill="#263238"/>
<path d="M97.4375 248.462C95.3571 248.231 93.2359 248.115 91.1459 248.167C90.0943 248.193 89.0532 248.291 88.0077 248.424C87.5087 248.486 87.0103 248.561 86.5136 248.641C85.9665 248.73 85.4289 248.907 84.8812 248.985C84.8241 248.993 84.8247 249.1 84.8835 249.094C85.402 249.038 85.9307 249.083 86.4509 249.063C86.9739 249.043 87.4964 249.017 88.0195 248.997C89.0667 248.955 90.1133 248.928 91.1605 248.875C93.2566 248.768 95.3437 248.687 97.4415 248.667C97.5557 248.666 97.5451 248.474 97.4375 248.462Z" fill="#263238"/>
<path d="M69.0328 209.624C59.0003 222.441 35.1365 270.54 42.8735 279.408C50.6659 288.34 93.5501 276.339 105.612 269.485C109.2 267.446 95.5656 240.763 91.3488 240.139C87.8381 239.621 69.8884 249.415 69.3693 248.183C68.783 246.791 72.8592 237.857 77.1774 219.256C82.1564 197.808 73.464 203.963 69.0328 209.624Z" fill="#C95F50"/>
<path d="M109.174 231.527C117.894 230.078 120.32 231.304 127.135 225.419C131.607 221.557 135.593 223.306 133.042 229.442C128.868 239.478 117.947 244.165 113.768 244.49L109.174 231.527Z" fill="#C95F50"/>
<path d="M86.0115 241.541C86.0115 241.541 95.8092 235.051 104.974 232.41C111.312 230.584 125.471 228.446 139.019 245.111C142.233 249.064 144.461 257.414 137.248 253.233C132.124 250.261 129.627 246.531 126.382 245.45C126.382 245.45 128.16 256.474 124.715 260.159C123.175 261.806 118.884 266.185 115.136 269.025C115.136 269.025 114.398 268.217 113.585 267.036C113.585 267.036 110.094 270.116 103.522 269.37L86.0115 241.541Z" fill="#C95F50"/>
<path d="M111.256 231.819C114.286 233.704 120.652 237.827 124.876 243.36C129.568 249.507 137.218 262.854 133.379 266.939C130.564 269.934 127.268 265.144 127.268 265.144C127.268 265.144 129.454 271.456 126.415 273.498C123.646 275.359 121.282 271.471 121.282 271.471C121.282 271.471 122.057 275.572 119.1 276.752C115.544 278.171 114.504 269.343 109.86 267.068C108.817 266.557 111.256 231.819 111.256 231.819Z" fill="#C95F50"/>
<path d="M118.605 248.191C121.211 250.52 125.992 257.624 127.314 264.98C127.344 265.147 127.255 265.263 127.2 265.118C124.302 257.386 120.366 250.883 118.557 248.243C118.532 248.208 118.576 248.165 118.605 248.191Z" fill="#263238"/>
<path d="M113.542 254.021C115.617 256.307 120.27 263.89 121.396 271.4C121.421 271.568 121.325 271.678 121.275 271.53C118.526 263.303 115.165 256.835 113.491 254.07C113.468 254.033 113.515 253.992 113.542 254.021Z" fill="#263238"/>
<path d="M126.383 245.381C129.225 246.379 131.073 248.042 133.472 250.028C134.659 251.011 135.861 251.974 137.133 252.794C138.291 253.541 139.998 254.67 141.231 253.5C141.917 252.849 141.907 251.664 141.754 250.731C141.583 249.682 141.246 248.674 140.725 247.803C140.699 247.759 140.763 247.702 140.789 247.746C141.27 248.521 141.685 249.344 141.965 250.252C142.218 251.073 142.416 252.028 142.221 252.897C141.804 254.767 139.956 255.012 138.647 254.498C137.865 254.19 137.124 253.694 136.411 253.207C135.722 252.735 135.052 252.225 134.394 251.694C133.044 250.606 131.746 249.425 130.406 248.318C128.933 247.102 127.917 246.507 126.341 245.494C126.287 245.461 126.327 245.362 126.383 245.381Z" fill="#263238"/>
<path d="M132.334 257.308C131.599 255.374 127.617 247.324 126.325 245.461C126.292 245.414 126.346 245.352 126.384 245.394C128.599 247.899 132.159 254.551 132.989 256.683C133.809 258.789 134.753 261.481 134.753 263.829C134.754 267.371 132.784 268.042 132.056 268.215C131.187 268.422 130.309 268.204 129.529 267.722C128.66 267.185 127.82 266.072 127.239 265.154C127.208 265.106 127.262 265.04 127.297 265.087C128.326 266.482 130.036 267.859 131.649 267.607C132.349 267.497 133.058 267.117 133.485 266.425C133.988 265.611 134.028 264.542 133.96 263.572C133.805 261.379 133.089 259.294 132.334 257.308Z" fill="#263238"/>
<path d="M121.395 271.4C121.809 271.823 122.66 273.291 124.013 273.605C125.002 273.835 126.038 273.723 126.798 272.863C127.542 272.021 127.821 270.831 127.867 269.642C127.893 268.968 127.442 266.061 127.245 265.184C127.23 265.115 127.302 265.084 127.32 265.149C127.749 266.712 128.211 268.413 128.212 269.945C128.212 271.219 127.875 272.586 127.075 273.475C126.247 274.396 125.034 274.721 123.967 274.245C123.438 274.009 121.767 272.732 121.282 271.471C121.271 271.444 121.378 271.382 121.395 271.4Z" fill="#263238"/>
<path d="M110.14 266.432C110.607 266.76 111.01 267.252 111.399 267.698C111.816 268.177 112.218 268.675 112.61 269.181C113.395 270.195 114.074 271.354 114.664 272.538C115.264 273.74 115.816 275.079 116.795 275.914C117.752 276.732 119.069 276.862 120.045 276.01C120.554 275.566 120.896 274.936 121.06 274.214C121.229 273.471 121.342 272.565 121.249 271.798C121.241 271.729 121.324 271.717 121.329 271.787C121.378 272.533 121.547 273.226 121.475 273.982C121.411 274.648 121.229 275.306 120.893 275.848C120.204 276.958 118.983 277.444 117.861 277.199C116.622 276.927 115.711 275.814 115.038 274.611C114.288 273.272 113.67 271.843 112.869 270.541C112.447 269.855 112.034 269.164 111.572 268.517C111.091 267.843 110.514 267.239 110.072 266.532C110.037 266.476 110.083 266.391 110.14 266.432Z" fill="#263238"/>
<path d="M106.666 269.453C107.599 269.357 109.751 268.929 111.449 268.27C111.498 268.251 111.568 268.418 111.522 268.448C110.889 268.865 109.564 269.28 109.164 269.376C108.367 269.57 107.493 269.656 106.679 269.557C106.633 269.551 106.612 269.459 106.666 269.453Z" fill="#263238"/>
<path d="M53.1311 257.537C55.6337 255.497 58.3038 253.743 61.0248 252.157C63.7207 250.585 66.5459 249.366 69.403 248.285C71.0348 247.667 72.6863 247.146 74.3377 246.61C74.3881 246.594 74.4066 246.686 74.3573 246.704C71.4755 247.736 68.6565 249.073 65.8963 250.493C63.1461 251.908 60.4223 253.379 57.718 254.913C56.1881 255.781 54.6935 256.735 53.1893 257.664C53.1187 257.708 53.0672 257.59 53.1311 257.537Z" fill="#263238"/>
<path d="M48.4851 239.854L72.8378 238.893C72.8378 238.893 77.3705 224.554 79.0964 211.799C80.8223 199.043 72.0633 202.937 62.9191 216.593C53.7749 230.249 48.4851 239.854 48.4851 239.854Z" fill="#FFC727"/>
<path d="M54.5941 231.642C54.4373 231.796 54.2917 231.876 54.1293 231.916C53.8213 231.99 53.5189 231.896 53.3005 231.642C53.2053 231.803 53.1045 231.963 53.0149 232.123C53.3509 232.457 53.8549 232.564 54.2469 232.351C54.4653 232.257 54.6501 232.043 54.7621 231.85C54.8741 231.642 54.9973 231.455 55.0981 231.242C54.9189 231.362 54.7621 231.509 54.5941 231.642ZM73.8357 231.041C73.6789 231.195 73.5389 231.275 73.3709 231.315C73.0461 231.389 72.7269 231.282 72.5029 231.001C72.1557 230.587 71.5901 230.473 71.1645 230.721C70.9517 230.828 70.7725 231.055 70.6661 231.242C70.5541 231.442 70.4309 231.629 70.3301 231.843C70.5093 231.723 70.6661 231.576 70.8341 231.442C71.0021 231.288 71.1309 231.202 71.2989 231.148C71.6125 231.061 71.9485 231.162 72.1669 231.422C72.4917 231.83 73.0573 231.983 73.4941 231.749C73.7069 231.649 73.8917 231.442 74.0037 231.242C74.1157 231.041 74.2389 230.854 74.3397 230.64C74.1605 230.761 74.0037 230.908 73.8357 231.041ZM63.6941 222.07C63.6549 221.83 63.6269 221.596 63.5765 221.355C63.5205 221.596 63.4925 221.83 63.4533 222.07C63.4309 222.317 63.3917 222.491 63.3021 222.665C63.1341 222.999 62.8317 223.206 62.5293 223.206C62.0533 223.199 61.5605 223.566 61.3925 224.094C61.2973 224.348 61.2917 224.655 61.3309 224.882C61.3701 225.123 61.3981 225.357 61.4541 225.597C61.5045 225.357 61.5325 225.123 61.5717 224.882C61.5941 224.642 61.6445 224.468 61.7397 224.301C61.9189 223.974 62.2101 223.78 62.5349 223.793C63.0277 223.787 63.4925 223.393 63.6493 222.858C63.7389 222.604 63.7277 222.29 63.6941 222.07ZM77.2685 204.148H77.2629C77.2013 204.168 77.1397 204.174 77.0781 204.174C76.6077 204.168 76.1149 204.535 75.9469 205.063C75.8517 205.317 75.8461 205.624 75.8853 205.858C75.9245 206.091 75.9469 206.332 76.0029 206.566C76.0589 206.332 76.0813 206.091 76.1261 205.858C76.1485 205.617 76.1989 205.437 76.2885 205.27C76.4733 204.943 76.7645 204.755 77.0893 204.762C77.3637 204.755 77.6325 204.635 77.8397 204.428C77.6661 204.308 77.4757 204.214 77.2685 204.148ZM66.0349 212.291C66.2365 212.184 66.3989 211.977 66.4997 211.796C66.5557 211.696 66.6173 211.596 66.6733 211.502C66.4605 211.756 66.2477 212.023 66.0349 212.291ZM60.9725 238.697C60.7597 238.59 60.4965 238.603 60.3117 238.643C60.1101 238.69 59.9141 238.723 59.7125 238.783C59.9141 238.85 60.1101 238.884 60.3117 238.93C60.5189 238.957 60.6645 239.004 60.8101 239.111C60.9053 239.178 60.9837 239.264 61.0509 239.358L61.5941 239.338V239.331C61.4485 239.037 61.2357 238.803 60.9725 238.697ZM77.3301 220.42C77.3245 219.832 76.9941 219.278 76.5461 219.091C76.3333 218.984 76.0701 218.997 75.8853 219.037C75.6837 219.084 75.4877 219.117 75.2917 219.184C75.4877 219.244 75.6837 219.278 75.8853 219.325C76.0925 219.351 76.2381 219.398 76.3837 219.505C76.6637 219.705 76.8429 220.066 76.8373 220.427C76.8317 220.888 77.0333 221.362 77.3469 221.622C77.3861 221.422 77.4309 221.228 77.4701 221.028C77.3749 220.854 77.3245 220.641 77.3301 220.42Z" fill="white"/>
<path d="M71.8361 238.794C71.9672 238.793 72.824 238.614 72.8273 238.614C72.8884 238.233 74.2777 232.24 74.6428 230.936C75.3865 228.279 76.2618 225.666 77.1052 223.053C77.132 222.97 77.239 223.005 77.2172 223.093C76.6672 225.342 76.152 227.606 75.5876 229.85C75.7578 229.532 75.9258 229.211 76.0871 228.886C76.4169 228.22 76.7048 227.529 77.0128 226.85C77.0402 226.789 77.1208 226.834 77.104 226.899C76.8627 227.843 76.4668 228.737 76.0305 229.571C75.8424 229.93 75.6245 230.27 75.3972 230.597C75.349 230.783 75.3036 230.971 75.2544 231.157C74.9088 232.469 73.1252 238.956 73.034 238.963C73.0121 238.964 72.1318 238.988 71.8596 238.991C71.793 238.992 71.7684 238.795 71.8361 238.794Z" fill="#263238"/>
<path d="M52.4271 234.23C57.6787 233.763 62.9657 233.732 68.2398 233.826C69.7316 233.852 71.224 233.92 72.7131 234.031C72.7551 234.034 72.7629 234.107 72.7186 234.109C70.0917 234.277 67.4603 234.317 64.8283 234.375C62.1895 234.433 59.5469 234.465 56.9071 234.435C55.4158 234.417 53.9262 234.402 52.4355 234.349C52.3711 234.347 52.361 234.236 52.4271 234.23Z" fill="#263238"/>
<path d="M77.4818 204.227C77.5747 205.496 81.5306 214.308 86.2682 214.85C87.811 215.023 88.9797 205.019 88.9797 205.019L89.2076 204.304L92.3901 194.291L83.1411 184.753L81.7932 183.469C81.7932 183.469 81.0742 186.276 80.2079 189.783C80.167 189.946 80.1261 190.108 80.0841 190.282C80.0309 190.48 79.9782 190.665 79.9357 190.851C79.8007 191.373 79.6647 191.906 79.5381 192.441C79.4407 192.848 79.3443 193.243 79.2553 193.674C79.1562 194.104 79.0677 194.524 78.9691 194.954C78.0714 199.22 77.4482 203.689 77.4818 204.227Z" fill="#C95F50"/>
<path d="M80.208 189.783C81.7026 198.441 86.8121 202.74 89.2078 204.304L92.3902 194.291L83.1413 184.753L81.7934 183.469C81.7934 183.469 81.0743 186.276 80.208 189.783Z" fill="#263238"/>
<path d="M103.721 173.574C108.016 191.655 99.4218 196.765 96.1519 197.866C93.1839 198.864 82.9712 201.815 77.1338 184.361C71.2963 166.906 76.9859 158.808 83.6729 156.095C90.3599 153.382 99.4268 155.493 103.721 173.574Z" fill="#C95F50"/>
<path d="M100.455 170.953C100.086 171.015 99.7373 170.998 99.3677 171.013C98.9505 171.031 98.6195 171.096 98.2493 170.822C98.0505 170.675 97.9766 170.275 98.078 170.032C98.3143 169.465 98.8211 169.292 99.3223 169.246C99.8666 169.197 100.297 169.325 100.744 169.696C101.178 170.055 100.941 170.872 100.455 170.953Z" fill="#263238"/>
<path d="M91.1039 176.527C91.4634 176.411 91.7787 176.234 92.1242 176.075C92.514 175.897 92.8399 175.804 93.0913 175.379C93.2257 175.151 93.163 174.748 92.99 174.572C92.5868 174.16 92.0637 174.236 91.5872 174.428C91.0697 174.636 90.7158 174.955 90.4252 175.504C90.144 176.037 90.6301 176.679 91.1039 176.527Z" fill="#263238"/>
<path d="M93.7243 178.377C93.7053 178.332 93.6577 178.462 93.6711 178.512C93.9976 179.731 94.1992 181.194 93.3637 181.92C93.3379 181.942 93.3553 182.003 93.3889 181.985C94.482 181.407 94.1975 179.469 93.7243 178.377Z" fill="#263238"/>
<path d="M92.4963 177.404C90.8012 177.818 91.6188 181.832 93.1896 181.448C94.7352 181.071 93.9176 177.058 92.4963 177.404Z" fill="#263238"/>
<path d="M91.8791 177.808C91.6316 178.12 91.425 178.605 91.0794 178.749C90.679 178.917 90.2837 178.586 89.9337 178.26C89.8973 178.226 89.8754 178.269 89.8855 178.322C90.0322 179.095 90.4416 179.811 91.1556 179.726C91.8074 179.648 92.1216 178.836 92.125 178.016C92.1261 177.864 91.9788 177.682 91.8791 177.808Z" fill="#263238"/>
<path d="M99.5051 176.149C99.504 176.1 99.5987 176.186 99.6071 176.237C99.8193 177.492 100.239 178.887 101.265 179.036C101.297 179.041 101.307 179.104 101.27 179.108C100.08 179.237 99.5376 177.379 99.5051 176.149Z" fill="#263238"/>
<path d="M100.182 174.587C101.831 173.965 102.754 177.946 101.226 178.523C99.7214 179.091 98.799 175.109 100.182 174.587Z" fill="#263238"/>
<path d="M100.938 174.62C101.251 174.744 101.601 175.041 101.922 174.963C102.294 174.871 102.464 174.351 102.601 173.862C102.616 173.811 102.649 173.836 102.663 173.888C102.856 174.643 102.829 175.505 102.25 175.853C101.722 176.171 101.16 175.653 100.832 174.945C100.772 174.814 100.813 174.57 100.938 174.62Z" fill="#263238"/>
<path d="M95.7593 187.668C96.0595 187.903 96.3776 188.25 96.7657 188.199C97.1381 188.15 97.5351 187.853 97.8454 187.619C97.8761 187.596 97.9165 187.631 97.9014 187.673C97.707 188.218 97.1812 188.654 96.6766 188.666C96.1838 188.677 95.8674 188.241 95.667 187.748C95.6395 187.679 95.7157 187.634 95.7593 187.668Z" fill="#263238"/>
<path d="M99.1093 182.526C99.1093 182.526 99.7203 184.313 99.9079 185.186C99.9252 185.268 97.3963 186.737 95.7706 184.943C95.7039 184.87 95.7751 184.755 95.8535 184.789C96.9998 185.34 98.1131 185.233 99.2644 184.906C99.2644 184.649 98.1321 181.889 98.2458 181.843C98.6372 181.68 99.4957 181.765 100.005 181.786C98.8226 178.021 97.1437 174.512 96.0136 170.743C95.975 170.607 96.1323 170.516 96.1928 170.628C98.1702 174.156 99.6105 178.453 100.916 182.303C101.082 182.782 99.4341 182.586 99.1093 182.526Z" fill="#263238"/>
<path d="M91.0115 158.099C91.0115 158.099 92.0167 160.757 91.4948 162.927C90.4218 167.387 86.0964 167.137 84.9002 169.056C83.7785 170.855 84.6925 173.932 83.6973 175.707C82.3197 178.163 79.9241 177.798 79.8485 179.28C79.7729 180.763 79.6183 185.467 78.1741 186.351C76.7298 187.235 65.4738 158.414 85.5476 155.367C85.5476 155.367 88.1068 153.449 92.6999 155.186C98.0244 157.199 101.364 166.175 101.364 166.175C101.364 166.175 100.995 165.736 100.212 165.155C99.1068 164.337 98.6029 163.474 97.8054 162.96C96.5527 162.151 95.9994 162.664 94.7064 161.892C92.7369 160.715 91.0115 158.099 91.0115 158.099Z" fill="#263238"/>
<path d="M90.5227 156.845C90.9982 157.968 91.3739 159.153 91.617 160.365C91.8667 161.562 91.9927 162.844 91.6898 163.985C91.3779 165.099 90.5737 165.976 89.7007 166.566C88.8103 167.173 87.7821 167.501 86.8301 168.192C86.3681 168.556 85.924 169.01 85.6619 169.658C85.4066 170.294 85.3623 170.972 85.3327 171.602C85.2929 172.864 85.2464 174.109 84.6909 175.116C84.1466 176.119 83.2327 176.841 82.2062 176.99C81.2021 177.193 80.044 177.08 79.1379 177.803C80.0911 177.17 81.1758 177.393 82.2387 177.278C83.3273 177.182 84.3672 176.455 85.0079 175.372C85.6922 174.271 85.7247 172.854 85.7857 171.636C85.8199 171.018 85.8781 170.409 86.0898 169.907C86.2919 169.414 86.6795 169.01 87.0967 168.695C87.9445 168.052 88.9839 167.693 89.9252 167.037C90.3967 166.712 90.8419 166.31 91.216 165.824C91.5839 165.351 91.9283 164.775 92.0588 164.117C92.3472 162.817 92.154 161.498 91.8539 160.286C91.5251 159.073 91.0704 157.922 90.5227 156.845Z" fill="#263238"/>
<path d="M91.0564 157.851C91.4081 158.948 91.8942 159.978 92.4838 160.936C93.0657 161.895 93.8771 162.733 94.8532 163.155C95.3421 163.374 95.8718 163.431 96.3221 163.517C96.7538 163.609 97.2293 163.827 97.5205 164.162C97.8408 164.55 98.1639 165.053 98.585 165.392C99.0073 165.73 99.4883 165.941 99.9744 166.018C99.5163 165.809 99.0795 165.551 98.7362 165.161C98.3706 164.797 98.1275 164.329 97.8016 163.848C97.4214 163.324 96.9213 163.127 96.4145 162.97C95.906 162.847 95.4518 162.803 95.0246 162.6C94.1549 162.215 93.4196 161.499 92.7963 160.631C92.1602 159.776 91.6024 158.822 91.0564 157.851Z" fill="#263238"/>
<path d="M75.6491 181.161C75.6491 181.161 69.591 167.405 76.1402 159.425C82.9308 151.15 92.4015 154.19 92.4015 154.19C92.4015 154.19 82.1053 154.957 77.8398 161.613C72.8749 169.361 75.6491 181.161 75.6491 181.161Z" fill="#FFC727"/>
<path d="M92.3201 185.462C90.1221 185.886 87.8725 184.503 86.9457 181.957C85.8504 178.945 87.0118 175.433 89.5352 174.126C92.0597 172.818 95.0036 174.203 96.1001 177.214C97.1954 180.224 96.034 183.737 93.5106 185.045C93.1209 185.247 92.7216 185.385 92.3201 185.462ZM90.8321 174.495C90.4849 174.562 90.1383 174.681 89.8012 174.856C87.6149 175.988 86.6086 179.031 87.5573 181.64C88.5076 184.246 91.0595 185.45 93.2441 184.315C95.4303 183.182 96.4366 180.14 95.488 177.531C94.685 175.326 92.7367 174.127 90.8321 174.495Z" fill="#DBDBDB"/>
<path d="M103.317 181.654C101.432 182.017 99.41 180.045 98.6971 177.058C98.337 175.551 98.3583 174.007 98.7565 172.711C99.167 171.371 99.9302 170.45 100.905 170.12C101.882 169.786 102.934 170.092 103.875 170.973C104.785 171.826 105.484 173.125 105.843 174.631C106.596 177.788 105.606 180.9 103.637 181.569C103.531 181.605 103.425 181.633 103.317 181.654ZM101.335 170.82C101.252 170.836 101.169 170.857 101.088 170.885C100.324 171.144 99.7191 171.89 99.3826 172.985C99.0337 174.124 99.018 175.493 99.3383 176.84C99.9913 179.574 101.832 181.356 103.454 180.804C105.07 180.255 105.853 177.584 105.202 174.849C104.881 173.502 104.263 172.348 103.463 171.599C102.776 170.956 102.03 170.685 101.335 170.82Z" fill="#DBDBDB"/>
<path d="M96.0972 177.932L95.5444 177.485C96.0983 176.509 97.5475 174.957 99.0763 176.055L98.732 176.737C97.3639 175.751 96.1481 177.843 96.0972 177.932Z" fill="#DBDBDB"/>
<path d="M74.1994 186.884L73.5459 186.727C73.6081 186.363 74.1888 183.151 75.5557 182.387C76.8342 181.678 86.5289 179.5 86.9041 179.417L87.0251 180.2C84.4933 180.758 76.8253 182.556 75.8385 183.108C74.9358 183.612 74.3495 186.005 74.1994 186.884Z" fill="#DBDBDB"/>
<path d="M79.6038 183.567C79.6038 183.567 75.3007 178.579 73.3402 180.517C71.3802 182.455 75.2621 190.224 78.0184 190.778C80.7747 191.332 81.2547 188.298 81.2547 188.298L79.6038 183.567Z" fill="#C95F50"/>
<path d="M74.4998 182.711C74.4578 182.716 74.4606 182.787 74.4992 182.796C76.4435 183.255 77.7136 185.033 78.7115 186.95C78.0468 186.276 77.2466 186.007 76.4743 186.973C76.434 187.024 76.4928 187.101 76.5415 187.077C77.2499 186.719 77.8077 186.75 78.4203 187.342C78.8543 187.761 79.1976 188.338 79.5437 188.857C79.659 189.03 79.9334 188.86 79.8366 188.653C79.8293 188.637 79.8209 188.622 79.8136 188.606C79.4182 185.852 77.0136 182.422 74.4998 182.711Z" fill="#263238"/>
<path d="M69.6694 208.167C69.6694 208.167 80.5351 217.463 86.7427 216.5C92.9503 215.537 92.3909 208.37 92.3909 208.37C92.3909 208.37 86.1737 201.879 78.8422 202.288C73.5413 202.585 69.6694 208.167 69.6694 208.167Z" fill="#C95F50"/>
<path d="M31.2615 284.405L75.9461 284.243L120.631 284.184L210 284.072L299.369 284.183L344.054 284.242L388.739 284.405L344.054 284.569L299.369 284.627L210 284.738L120.631 284.627L75.9461 284.567L31.2615 284.405Z" fill="#263238"/>
<path d="M164.599 282.727H102.331V286.058H164.599V282.727Z" fill="#455A64"/>
<path d="M133.671 282.727H102.331V286.058H133.671V282.727Z" fill="#263238"/>
<path d="M132.945 286.056H193.63L202.204 236.891H141.519L132.945 286.056Z" fill="#37474F"/>
<path d="M162.87 262.572C162.636 265.236 164.256 267.397 166.49 267.397C168.724 267.397 170.725 265.236 170.96 262.572C171.194 259.907 169.574 257.747 167.34 257.747C165.106 257.747 163.105 259.907 162.87 262.572Z" fill="white"/>
<path d="M316.719 282.727H254.45V286.058H316.719V282.727Z" fill="#455A64"/>
<path d="M316.719 282.727H285.378V286.058H316.719V282.727Z" fill="#263238"/>
<path d="M286.106 286.056H225.42L216.846 236.891H277.531L286.106 286.056Z" fill="#37474F"/>
<path d="M256.18 262.572C256.415 265.236 254.794 267.397 252.56 267.397C250.327 267.397 248.325 265.236 248.09 262.572C247.856 259.907 249.476 257.747 251.71 257.747C253.944 257.747 255.945 259.907 256.18 262.572Z" fill="white"/>
<path d="M277.653 224.795C272.234 224.795 267.989 211.228 267.989 193.908C267.989 176.588 272.234 163.021 277.653 163.021C283.073 163.021 287.318 176.588 287.318 193.908C287.318 211.228 283.073 224.795 277.653 224.795ZM277.653 165.024C273.797 165.024 269.669 176.63 269.669 193.908C269.669 211.185 273.797 222.791 277.653 222.791C281.51 222.791 285.638 211.185 285.638 193.908C285.638 176.63 281.51 165.024 277.653 165.024Z" fill="#FFC727"/>
<path d="M261.441 212.412C258.359 212.412 256.207 211.371 255.229 209.351C253.859 206.52 255.039 202.267 258.553 197.375C261.878 192.747 266.945 187.97 272.821 183.924C278.696 179.877 284.698 177.031 289.721 175.91C295.029 174.726 298.708 175.632 300.078 178.463C301.448 181.294 300.268 185.547 296.754 190.439C293.428 195.067 288.361 199.844 282.485 203.891C276.61 207.938 270.608 210.783 265.585 211.904C264.066 212.244 262.678 212.412 261.441 212.412ZM293.917 177.399C292.78 177.399 291.476 177.558 290.031 177.88C285.191 178.96 279.378 181.723 273.662 185.66C267.947 189.596 263.034 194.22 259.83 198.68C256.858 202.815 255.712 206.34 256.684 208.35C257.657 210.358 260.789 210.936 265.278 209.936C270.118 208.855 275.931 206.093 281.646 202.156C287.362 198.22 292.275 193.596 295.478 189.135C298.45 185 299.597 181.475 298.624 179.466C297.964 178.104 296.312 177.399 293.917 177.399Z" fill="#FFC727"/>
<path d="M293.867 212.412C292.63 212.412 291.243 212.244 289.722 211.904C284.7 210.783 278.698 207.938 272.822 203.891C266.947 199.844 261.879 195.067 258.554 190.439C255.04 185.548 253.859 181.295 255.23 178.464C256.601 175.632 260.28 174.726 265.587 175.91C270.609 177.031 276.612 179.877 282.487 183.924C288.363 187.971 293.43 192.747 296.755 197.375C300.269 202.266 301.45 206.52 300.08 209.351C299.101 211.372 296.949 212.412 293.867 212.412ZM261.391 177.399C258.996 177.399 257.344 178.103 256.685 179.466C255.712 181.476 256.859 184.999 259.83 189.136C263.034 193.596 267.947 198.22 273.662 202.156C279.377 206.093 285.191 208.855 290.031 209.936C294.52 210.937 297.652 210.36 298.625 208.35C299.597 206.341 298.451 202.816 295.479 198.68C292.275 194.22 287.362 189.596 281.647 185.66C275.932 181.723 270.118 178.961 265.278 177.88C263.832 177.558 262.528 177.399 261.391 177.399Z" fill="#FFC727"/>
<path d="M277.654 198.444C279.754 198.444 281.457 196.413 281.457 193.908C281.457 191.402 279.754 189.371 277.654 189.371C275.553 189.371 273.851 191.402 273.851 193.908C273.851 196.413 275.553 198.444 277.654 198.444Z" fill="#FFC727"/>
<path d="M165.572 171.546L139.572 222.919L113.57 171.546H132.916L139.572 186.467L146.227 171.546H165.572Z" fill="#FFC727"/>
<path opacity="0.1" d="M155.603 171.546L139.572 204.131L123.541 171.546H132.916L139.572 186.467L146.227 171.546H155.603Z" fill="#000102"/>
<path d="M238.528 118.527L231.898 163.168L210 171.46L188.102 163.168L181.472 118.527L210 101.917L238.528 118.527Z" fill="#FFC727"/>
<path opacity="0.1" d="M210 167.906V105.468L235.582 120.369L229.637 160.399L210 167.906Z" fill="black"/>
<path d="M207.493 118.81H212.547L223.734 153.898H217.851L215.117 145.15H204.841L202.149 153.898H196.265L207.493 118.81ZM214.081 140.356L210.02 126.568L205.794 140.356H214.081Z" fill="white"/>
<path d="M233.05 174.697L235.51 181.78L233.054 182.993L230.581 175.861L226.522 179.618V159.662L238.232 173.774L233.05 174.697Z" fill="#263238"/>
<path d="M226.522 157.486C226.404 157.152 226.378 156.818 226.373 156.483C226.378 156.148 226.404 155.814 226.522 155.48C226.64 155.814 226.666 156.148 226.671 156.483C226.666 156.818 226.639 157.152 226.522 157.486Z" fill="#263238"/>
<path d="M225.073 158.202C224.792 158.064 224.575 157.85 224.373 157.618C224.177 157.377 223.998 157.119 223.883 156.783C224.165 156.92 224.382 157.134 224.583 157.367C224.778 157.608 224.957 157.866 225.073 158.202Z" fill="#263238"/>
<path d="M224.473 159.93C224.193 160.07 223.913 160.102 223.632 160.108C223.352 160.102 223.072 160.071 222.791 159.93C223.072 159.789 223.352 159.758 223.632 159.753C223.913 159.759 224.193 159.79 224.473 159.93Z" fill="#263238"/>
<path d="M225.073 161.658C224.957 161.993 224.778 162.252 224.583 162.493C224.382 162.726 224.165 162.94 223.883 163.077C223.998 162.741 224.178 162.482 224.373 162.242C224.575 162.01 224.792 161.796 225.073 161.658Z" fill="#263238"/>
<path d="M228.571 159.93C228.851 159.79 229.131 159.759 229.412 159.753C229.692 159.758 229.972 159.79 230.253 159.93C229.972 160.071 229.692 160.102 229.412 160.108C229.131 160.102 228.851 160.07 228.571 159.93Z" fill="#263238"/>
<path d="M227.97 158.202C228.086 157.866 228.265 157.608 228.46 157.367C228.661 157.134 228.878 156.92 229.16 156.783C229.045 157.119 228.865 157.377 228.67 157.618C228.469 157.85 228.252 158.065 227.97 158.202Z" fill="#263238"/>
</svg>
